<svg id="svg" version="1.1" xmlns="http://www.w3.org/2000/svg" xmlns:xlink="http://www.w3.org/1999/xlink" width="400" height="711.1111111111111" viewBox="0, 0, 400,711.1111111111111"><g id="svgg"><path id="path0" d="M245.311 359.732 C 245.373 360.059,244.166 360.234,241.300 360.314 C 238.018 360.405,237.200 360.545,237.200 361.014 C 237.200 361.493,236.399 361.600,232.813 361.600 C 229.077 361.600,228.459 361.689,228.655 362.200 C 228.850 362.708,228.281 362.800,224.923 362.800 C 222.743 362.800,220.789 362.968,220.580 363.173 C 220.371 363.379,218.535 363.593,216.500 363.650 C 214.465 363.707,212.800 363.909,212.800 364.100 C 212.800 364.291,212.620 364.336,212.400 364.200 C 212.180 364.064,212.000 364.143,212.000 364.376 C 212.000 364.643,210.676 364.800,208.429 364.800 C 205.787 364.800,204.701 364.956,204.257 365.400 C 203.823 365.834,202.765 366.000,200.429 366.000 C 198.653 366.000,197.200 366.161,197.200 366.357 C 197.200 367.199,191.570 367.927,184.270 368.030 C 180.992 368.077,179.888 368.227,179.727 368.646 C 179.566 369.065,178.579 369.200,175.689 369.200 C 172.913 369.200,171.688 369.359,171.224 369.778 C 170.772 370.187,169.443 370.378,166.692 370.429 C 163.695 370.485,162.800 370.628,162.800 371.051 C 162.800 371.478,161.955 371.600,159.000 371.600 C 155.889 371.600,155.200 371.709,155.200 372.200 C 155.200 372.693,154.493 372.800,151.233 372.800 C 149.052 372.800,147.207 372.971,147.133 373.181 C 147.060 373.390,145.141 373.592,142.868 373.630 C 139.780 373.682,138.683 373.839,138.526 374.250 C 138.369 374.657,137.427 374.800,134.889 374.800 C 132.462 374.800,131.277 374.969,130.824 375.378 C 130.373 375.786,129.046 375.978,126.316 376.029 C 123.455 376.082,122.392 376.244,122.236 376.650 C 122.078 377.062,121.089 377.200,118.293 377.200 C 116.240 377.200,114.388 377.372,114.178 377.582 C 113.968 377.792,112.211 377.996,110.275 378.034 C 107.905 378.080,106.575 378.282,106.206 378.652 C 105.821 379.036,104.565 379.200,102.000 379.200 C 99.283 379.200,98.189 379.354,97.743 379.800 C 97.299 380.244,96.211 380.400,93.559 380.400 C 90.742 380.400,89.926 380.528,89.745 381.000 C 89.561 381.477,88.706 381.600,85.557 381.600 C 82.306 381.600,81.600 381.707,81.600 382.200 C 81.600 382.697,80.848 382.800,77.233 382.800 C 74.832 382.800,72.807 382.971,72.733 383.180 C 72.660 383.389,70.935 383.592,68.900 383.632 C 66.071 383.688,65.200 383.834,65.200 384.253 C 65.200 384.679,64.318 384.800,61.200 384.800 C 57.911 384.800,57.200 384.907,57.200 385.400 C 57.200 385.936,53.612 386.246,48.932 386.113 C 48.674 386.105,48.558 386.347,48.674 386.650 C 48.845 387.094,48.110 387.200,44.843 387.200 C 42.414 387.200,40.800 387.360,40.800 387.600 C 40.800 387.838,39.296 388.000,37.089 388.000 C 34.523 388.000,33.127 388.176,32.563 388.571 C 32.036 388.940,30.458 389.179,28.088 389.247 C 25.519 389.321,24.367 389.509,24.226 389.876 C 24.080 390.257,22.993 390.400,20.255 390.400 C 17.273 390.400,16.437 390.525,16.255 391.000 C 16.073 391.475,15.235 391.600,12.236 391.600 C 10.101 391.600,8.338 391.777,8.196 392.007 C 8.058 392.230,7.777 392.309,7.572 392.183 C 7.368 392.056,7.200 392.143,7.200 392.376 C 7.200 392.643,5.867 392.800,3.600 392.800 L 0.000 392.800 0.000 435.400 L 0.000 478.000 1.176 478.000 C 1.823 478.000,2.464 477.820,2.600 477.600 C 2.736 477.380,3.287 477.200,3.824 477.200 C 4.425 477.200,4.800 476.969,4.800 476.600 C 4.800 476.156,5.267 476.000,6.600 476.000 C 7.933 476.000,8.400 475.844,8.400 475.400 C 8.400 474.967,8.844 474.800,10.000 474.800 C 11.156 474.800,11.600 474.633,11.600 474.200 C 11.600 473.780,12.024 473.600,13.013 473.600 C 13.899 473.600,14.511 473.377,14.655 473.000 C 14.805 472.611,15.425 472.400,16.419 472.400 C 17.263 472.400,18.064 472.220,18.200 472.000 C 18.336 471.780,18.802 471.600,19.236 471.600 C 19.670 471.600,20.129 471.330,20.255 471.000 C 20.412 470.593,21.050 470.400,22.243 470.400 C 23.538 470.400,24.000 470.242,24.000 469.800 C 24.000 469.367,24.444 469.200,25.600 469.200 C 26.756 469.200,27.200 469.033,27.200 468.600 C 27.200 468.169,27.641 468.000,28.767 468.000 C 29.628 468.000,30.401 467.798,30.483 467.550 C 30.566 467.303,31.121 467.100,31.717 467.100 C 32.369 467.100,32.800 466.881,32.800 466.550 C 32.800 466.175,33.309 466.000,34.400 466.000 C 35.556 466.000,36.000 465.833,36.000 465.400 C 36.000 464.969,36.440 464.800,37.557 464.800 C 38.572 464.800,39.195 464.591,39.345 464.200 C 39.488 463.826,40.099 463.600,40.968 463.600 C 41.769 463.600,42.498 463.353,42.685 463.019 C 42.864 462.699,43.672 462.393,44.479 462.339 C 45.287 462.284,45.859 462.096,45.751 461.920 C 45.642 461.744,46.193 461.600,46.976 461.600 C 47.975 461.600,48.400 461.421,48.400 461.000 C 48.400 460.567,48.844 460.400,50.000 460.400 C 51.156 460.400,51.600 460.233,51.600 459.800 C 51.600 459.367,52.044 459.200,53.200 459.200 C 54.356 459.200,54.800 459.033,54.800 458.600 C 54.800 458.168,55.242 458.000,56.376 458.000 C 57.243 458.000,58.064 457.820,58.200 457.600 C 58.336 457.380,58.842 457.194,59.324 457.187 C 59.806 457.180,60.549 456.910,60.976 456.587 C 61.404 456.264,62.259 456.000,62.876 456.000 C 63.608 456.000,64.000 455.791,64.000 455.400 C 64.000 454.967,64.444 454.800,65.600 454.800 C 66.756 454.800,67.200 454.633,67.200 454.200 C 67.200 453.767,67.644 453.600,68.800 453.600 C 69.956 453.600,70.400 453.433,70.400 453.000 C 70.400 452.556,70.867 452.400,72.200 452.400 C 73.190 452.400,74.000 452.220,74.000 452.000 C 74.000 451.780,74.428 451.600,74.951 451.600 C 75.474 451.600,76.126 451.330,76.400 451.000 C 76.674 450.670,77.422 450.400,78.062 450.400 C 78.727 450.400,79.324 450.143,79.455 449.800 C 79.605 449.409,80.228 449.200,81.243 449.200 C 82.360 449.200,82.800 449.031,82.800 448.600 C 82.800 448.167,83.244 448.000,84.400 448.000 C 85.280 448.000,86.000 447.820,86.000 447.600 C 86.000 447.380,86.527 447.200,87.171 447.200 C 87.816 447.200,88.613 446.930,88.943 446.600 C 89.273 446.270,90.006 446.000,90.571 446.000 C 91.219 446.000,91.600 445.778,91.600 445.400 C 91.600 444.967,92.044 444.800,93.200 444.800 C 94.356 444.800,94.800 444.633,94.800 444.200 C 94.800 443.756,95.267 443.600,96.600 443.600 C 97.933 443.600,98.400 443.444,98.400 443.000 C 98.400 442.583,98.820 442.400,99.776 442.400 C 100.533 442.400,101.264 442.220,101.400 442.000 C 101.536 441.780,102.155 441.600,102.775 441.600 C 103.395 441.600,104.126 441.330,104.400 441.000 C 104.674 440.670,105.416 440.400,106.049 440.400 C 106.805 440.400,107.200 440.194,107.200 439.800 C 107.200 439.400,107.600 439.200,108.400 439.200 C 110.002 439.200,109.982 440.224,108.373 440.545 C 107.692 440.682,107.258 440.970,107.397 441.195 C 107.535 441.418,107.354 441.600,106.995 441.600 C 106.636 441.600,106.071 441.872,105.739 442.204 C 105.407 442.536,104.969 442.704,104.765 442.578 C 104.561 442.452,104.286 442.631,104.154 442.975 C 104.022 443.319,103.524 443.600,103.046 443.600 C 102.569 443.600,101.863 443.968,101.478 444.417 C 101.093 444.866,100.603 445.126,100.389 444.993 C 100.175 444.861,100.000 445.033,100.000 445.376 C 100.000 445.733,99.658 446.000,99.200 446.000 C 98.756 446.000,98.400 446.267,98.400 446.600 C 98.400 446.996,98.004 447.200,97.233 447.200 C 96.592 447.200,96.004 447.388,95.927 447.618 C 95.851 447.848,95.386 448.066,94.894 448.103 C 94.402 448.140,94.000 448.402,94.000 448.685 C 94.000 448.968,93.640 449.200,93.200 449.200 C 92.760 449.200,92.400 449.377,92.400 449.592 C 92.400 449.808,91.950 450.098,91.400 450.236 C 90.850 450.374,90.400 450.737,90.400 451.043 C 90.400 451.370,89.988 451.600,89.400 451.600 C 88.850 451.600,88.400 451.780,88.400 452.000 C 88.400 452.220,88.118 452.400,87.773 452.400 C 87.429 452.400,86.558 452.849,85.838 453.398 C 85.118 453.947,84.410 454.277,84.265 454.131 C 84.119 453.986,84.000 454.077,84.000 454.333 C 84.000 454.590,83.730 454.800,83.400 454.800 C 83.070 454.800,82.800 455.070,82.800 455.400 C 82.800 455.800,82.400 456.000,81.600 456.000 C 80.800 456.000,80.400 456.200,80.400 456.600 C 80.400 456.930,80.066 457.200,79.658 457.200 C 79.251 457.200,78.431 457.650,77.838 458.200 C 77.244 458.750,76.408 459.200,75.979 459.200 C 75.551 459.200,75.200 459.470,75.200 459.800 C 75.200 460.200,74.800 460.400,74.000 460.400 C 73.200 460.400,72.800 460.600,72.800 461.000 C 72.800 461.348,72.438 461.600,71.938 461.600 C 71.464 461.600,70.486 462.050,69.764 462.600 C 69.043 463.150,68.171 463.600,67.827 463.600 C 67.482 463.600,67.200 463.870,67.200 464.200 C 67.200 464.573,66.822 464.800,66.200 464.800 C 65.578 464.800,65.200 465.027,65.200 465.400 C 65.200 465.800,64.800 466.000,64.000 466.000 C 63.200 466.000,62.800 466.200,62.800 466.600 C 62.800 466.930,62.530 467.200,62.200 467.200 C 61.870 467.200,61.600 467.380,61.600 467.600 C 61.600 467.820,61.150 468.000,60.600 468.000 C 59.978 468.000,59.600 468.227,59.600 468.600 C 59.600 468.975,59.221 469.200,58.587 469.200 C 58.031 469.200,57.471 469.470,57.345 469.800 C 57.218 470.130,56.684 470.400,56.157 470.400 C 55.573 470.400,55.200 470.634,55.200 471.000 C 55.200 471.330,54.930 471.600,54.600 471.600 C 54.270 471.600,54.000 471.780,54.000 472.000 C 54.000 472.220,53.653 472.400,53.229 472.400 C 52.804 472.400,52.187 472.670,51.857 473.000 C 51.527 473.330,50.884 473.600,50.429 473.600 C 49.959 473.600,49.600 473.860,49.600 474.200 C 49.600 474.600,49.200 474.800,48.400 474.800 C 47.600 474.800,47.200 475.000,47.200 475.400 C 47.200 475.730,46.930 476.000,46.600 476.000 C 46.270 476.000,46.000 476.270,46.000 476.600 C 46.000 476.973,45.622 477.200,45.000 477.200 C 44.450 477.200,44.000 477.380,44.000 477.600 C 44.000 477.820,43.559 478.000,43.020 478.000 C 42.481 478.000,41.884 478.279,41.693 478.619 C 41.503 478.960,40.954 479.268,40.473 479.304 C 39.993 479.341,39.600 479.602,39.600 479.885 C 39.600 480.168,39.330 480.400,39.000 480.400 C 38.670 480.400,38.400 480.670,38.400 481.000 C 38.400 481.400,38.000 481.600,37.200 481.600 C 36.540 481.600,36.000 481.780,36.000 482.000 C 36.000 482.220,35.649 482.400,35.220 482.400 C 34.791 482.400,34.276 482.693,34.075 483.052 C 33.874 483.411,33.280 483.733,32.755 483.768 C 32.230 483.804,31.845 484.050,31.900 484.316 C 31.955 484.582,31.640 484.800,31.200 484.800 C 30.756 484.800,30.400 485.067,30.400 485.400 C 30.400 485.773,30.022 486.000,29.400 486.000 C 28.778 486.000,28.400 486.227,28.400 486.600 C 28.400 486.973,28.022 487.200,27.400 487.200 C 26.850 487.200,26.400 487.380,26.400 487.600 C 26.400 487.820,26.062 488.000,25.649 488.000 C 25.236 488.000,24.674 488.270,24.400 488.600 C 24.126 488.930,23.654 489.200,23.351 489.200 C 23.048 489.200,22.800 489.470,22.800 489.800 C 22.800 490.200,22.400 490.400,21.600 490.400 C 20.800 490.400,20.400 490.600,20.400 491.000 C 20.400 491.373,20.022 491.600,19.400 491.600 C 18.850 491.600,18.400 491.780,18.400 492.000 C 18.400 492.220,18.149 492.400,17.843 492.400 C 17.536 492.400,17.182 492.670,17.055 493.000 C 16.929 493.330,16.459 493.600,16.013 493.600 C 15.557 493.600,15.200 493.864,15.200 494.200 C 15.200 494.600,14.800 494.800,14.000 494.800 C 13.225 494.800,12.800 495.003,12.800 495.373 C 12.800 495.702,12.330 496.001,11.700 496.073 C 11.081 496.145,10.644 496.419,10.700 496.700 C 10.785 497.126,10.077 497.382,9.143 497.262 C 9.002 497.244,8.407 497.672,7.822 498.214 C 7.237 498.756,6.408 499.200,5.979 499.200 C 5.551 499.200,5.200 499.470,5.200 499.800 C 5.200 500.200,4.800 500.400,4.000 500.400 C 3.200 500.400,2.800 500.600,2.800 501.000 C 2.800 501.330,2.530 501.600,2.200 501.600 C 1.870 501.600,1.600 501.780,1.600 502.000 C 1.600 502.220,1.240 502.400,0.800 502.400 C 0.002 502.400,0.000 502.667,0.000 606.600 L 0.000 710.800 126.985 710.800 L 253.971 710.800 254.188 701.700 C 254.308 696.695,254.500 682.817,254.615 670.859 C 254.790 652.682,254.919 649.024,255.400 648.543 C 255.887 648.056,255.978 644.466,255.993 625.296 C 256.009 605.896,256.095 602.578,256.593 602.300 C 257.089 602.022,257.181 598.755,257.224 579.887 C 257.281 554.042,257.199 556.886,257.898 556.618 C 258.379 556.433,258.449 552.066,258.365 527.300 C 258.270 499.342,258.823 459.433,259.423 450.932 C 259.609 448.298,259.533 445.549,259.207 443.132 C 258.778 439.951,258.796 438.868,259.325 435.800 C 259.828 432.891,259.902 430.199,259.714 421.776 C 259.507 412.508,259.555 411.241,260.142 410.344 C 260.506 409.790,260.716 409.249,260.610 409.143 C 260.504 409.037,260.405 401.992,260.391 393.488 C 260.375 384.122,260.214 377.932,259.982 377.789 C 259.769 377.657,259.600 375.085,259.600 371.964 C 259.600 367.365,259.494 366.334,259.000 366.145 C 258.670 366.018,258.400 365.484,258.400 364.957 C 258.400 364.373,258.166 364.000,257.800 364.000 C 257.470 364.000,257.200 363.730,257.200 363.400 C 257.200 363.070,256.930 362.800,256.600 362.800 C 256.270 362.800,256.000 362.530,256.000 362.200 C 256.000 361.870,255.730 361.600,255.400 361.600 C 255.070 361.600,254.800 361.330,254.800 361.000 C 254.800 360.600,254.400 360.400,253.600 360.400 C 252.853 360.400,252.438 360.211,252.500 359.900 C 252.573 359.533,251.620 359.382,248.911 359.332 C 246.277 359.283,245.247 359.397,245.311 359.732 M111.600 438.600 C 111.600 438.930,111.330 439.200,111.000 439.200 C 110.670 439.200,110.400 438.930,110.400 438.600 C 110.400 438.270,110.670 438.000,111.000 438.000 C 111.330 438.000,111.600 438.270,111.600 438.600 " stroke="none" fill="#fccc64" fill-rule="evenodd"></path><path id="path1" d="M260.207 410.245 C 259.537 411.268,259.500 412.151,259.714 421.776 C 259.902 430.199,259.828 432.891,259.325 435.800 C 258.796 438.868,258.778 439.951,259.207 443.132 C 259.533 445.553,259.609 448.294,259.422 450.932 C 259.263 453.170,258.952 464.540,258.729 476.200 C 258.507 487.860,258.237 501.630,258.129 506.800 C 257.896 517.932,258.203 523.600,259.037 523.600 C 259.367 523.600,259.600 524.004,259.600 524.576 C 259.600 525.113,259.780 525.664,260.000 525.800 C 260.220 525.936,260.400 526.487,260.400 527.024 C 260.400 527.625,260.631 528.000,261.000 528.000 C 261.375 528.000,261.600 528.379,261.600 529.013 C 261.600 529.569,261.870 530.129,262.200 530.255 C 262.530 530.382,262.800 530.916,262.800 531.443 C 262.800 532.027,263.034 532.400,263.400 532.400 C 263.800 532.400,264.000 532.800,264.000 533.600 C 264.000 534.400,264.200 534.800,264.600 534.800 C 265.017 534.800,265.200 535.220,265.200 536.176 C 265.200 536.933,265.380 537.664,265.600 537.800 C 265.820 537.936,266.000 538.492,266.000 539.036 C 266.000 539.580,266.270 540.129,266.600 540.255 C 266.930 540.382,267.200 540.916,267.200 541.443 C 267.200 542.027,267.434 542.400,267.800 542.400 C 268.200 542.400,268.400 542.800,268.400 543.600 C 268.400 544.400,268.600 544.800,269.000 544.800 C 269.373 544.800,269.600 545.178,269.600 545.800 C 269.600 546.350,269.780 546.800,270.000 546.800 C 270.220 546.800,270.400 547.256,270.400 547.813 C 270.400 548.369,270.670 548.929,271.000 549.055 C 271.342 549.187,271.600 549.783,271.600 550.443 C 271.600 551.205,271.805 551.600,272.200 551.600 C 272.620 551.600,272.800 552.024,272.800 553.013 C 272.800 553.899,273.023 554.511,273.400 554.655 C 273.730 554.782,274.000 555.316,274.000 555.843 C 274.000 556.427,274.234 556.800,274.600 556.800 C 275.000 556.800,275.200 557.200,275.200 558.000 C 275.200 558.660,275.380 559.200,275.600 559.200 C 275.820 559.200,276.000 559.656,276.000 560.213 C 276.000 560.769,276.270 561.329,276.600 561.455 C 276.930 561.582,277.200 562.116,277.200 562.643 C 277.200 563.227,277.434 563.600,277.800 563.600 C 278.200 563.600,278.400 564.000,278.400 564.800 C 278.400 565.600,278.600 566.000,279.000 566.000 C 279.376 566.000,279.600 566.380,279.600 567.020 C 279.600 567.581,279.863 568.548,280.184 569.169 C 280.505 569.790,280.660 570.407,280.527 570.540 C 280.394 570.673,280.581 570.895,280.943 571.033 C 281.304 571.172,281.600 571.722,281.600 572.255 C 281.600 572.789,281.870 573.329,282.200 573.455 C 282.542 573.587,282.800 574.183,282.800 574.843 C 282.800 575.605,283.005 576.000,283.400 576.000 C 283.773 576.000,284.000 576.378,284.000 577.000 C 284.000 577.622,284.227 578.000,284.600 578.000 C 285.000 578.000,285.200 578.400,285.200 579.200 C 285.200 579.860,285.380 580.400,285.600 580.400 C 285.820 580.400,286.000 580.850,286.000 581.400 C 286.000 582.022,286.227 582.400,286.600 582.400 C 287.020 582.400,287.200 582.824,287.200 583.813 C 287.200 584.699,287.423 585.311,287.800 585.455 C 288.142 585.587,288.400 586.183,288.400 586.843 C 288.400 587.605,288.605 588.000,289.000 588.000 C 289.369 588.000,289.600 588.375,289.600 588.976 C 289.600 589.513,289.780 590.064,290.000 590.200 C 290.220 590.336,290.400 590.887,290.400 591.424 C 290.400 592.025,290.631 592.400,291.000 592.400 C 291.400 592.400,291.600 592.800,291.600 593.600 C 291.600 594.400,291.800 594.800,292.200 594.800 C 292.573 594.800,292.800 595.178,292.800 595.800 C 292.800 596.422,293.027 596.800,293.400 596.800 C 293.800 596.800,294.000 597.200,294.000 598.000 C 294.000 598.800,294.200 599.200,294.600 599.200 C 295.017 599.200,295.200 599.620,295.200 600.576 C 295.200 601.333,295.380 602.064,295.600 602.200 C 295.820 602.336,296.000 602.784,296.000 603.195 C 296.000 603.606,296.270 604.213,296.600 604.543 C 296.930 604.873,297.200 605.516,297.200 605.971 C 297.200 606.441,297.460 606.800,297.800 606.800 C 298.200 606.800,298.400 607.200,298.400 608.000 C 298.400 608.800,298.600 609.200,299.000 609.200 C 299.373 609.200,299.600 609.578,299.600 610.200 C 299.600 610.750,299.780 611.200,300.000 611.200 C 300.220 611.200,300.400 611.656,300.400 612.213 C 300.400 612.769,300.670 613.329,301.000 613.455 C 301.330 613.582,301.600 614.082,301.600 614.566 C 301.600 615.051,301.864 615.796,302.187 616.224 C 302.510 616.651,302.780 617.411,302.787 617.913 C 302.794 618.414,303.070 618.929,303.400 619.055 C 303.730 619.182,304.000 619.716,304.000 620.243 C 304.000 620.827,304.234 621.200,304.600 621.200 C 305.000 621.200,305.200 621.600,305.200 622.400 C 305.200 623.060,305.380 623.600,305.600 623.600 C 305.820 623.600,306.000 624.056,306.000 624.613 C 306.000 625.169,306.270 625.729,306.600 625.855 C 306.930 625.982,307.200 626.516,307.200 627.043 C 307.200 627.627,307.434 628.000,307.800 628.000 C 308.200 628.000,308.400 628.400,308.400 629.200 C 308.400 630.000,308.600 630.400,309.000 630.400 C 309.514 630.400,309.745 631.319,309.566 632.655 C 309.547 632.796,309.723 633.028,309.956 633.173 C 310.189 633.317,310.446 633.867,310.527 634.396 C 310.607 634.925,310.882 635.427,311.137 635.512 C 311.391 635.597,311.600 636.107,311.600 636.646 C 311.600 637.184,311.870 637.729,312.200 637.855 C 312.542 637.987,312.800 638.583,312.800 639.243 C 312.800 640.005,313.005 640.400,313.400 640.400 C 313.773 640.400,314.000 640.778,314.000 641.400 C 314.000 642.022,314.227 642.400,314.600 642.400 C 315.000 642.400,315.200 642.800,315.200 643.600 C 315.200 644.260,315.380 644.800,315.600 644.800 C 315.820 644.800,316.000 645.250,316.000 645.800 C 316.000 646.422,316.227 646.800,316.600 646.800 C 317.121 646.800,317.463 648.333,317.247 649.700 C 317.221 649.865,317.470 650.000,317.800 650.000 C 318.200 650.000,318.400 650.400,318.400 651.200 C 318.400 652.000,318.600 652.400,319.000 652.400 C 319.400 652.400,319.600 652.800,319.600 653.600 C 319.600 654.260,319.780 654.800,320.000 654.800 C 320.220 654.800,320.400 655.250,320.400 655.800 C 320.400 656.422,320.627 656.800,321.000 656.800 C 321.400 656.800,321.600 657.200,321.600 658.000 C 321.600 658.800,321.800 659.200,322.200 659.200 C 322.573 659.200,322.800 659.578,322.800 660.200 C 322.800 660.822,323.027 661.200,323.400 661.200 C 323.800 661.200,324.000 661.600,324.000 662.400 C 324.000 663.200,324.200 663.600,324.600 663.600 C 325.033 663.600,325.200 664.044,325.200 665.200 C 325.200 666.080,325.380 666.800,325.600 666.800 C 325.820 666.800,326.000 667.147,326.000 667.571 C 326.000 667.996,326.270 668.613,326.600 668.943 C 326.930 669.273,327.200 669.916,327.200 670.371 C 327.200 670.841,327.460 671.200,327.800 671.200 C 328.200 671.200,328.400 671.600,328.400 672.400 C 328.400 673.200,328.600 673.600,329.000 673.600 C 329.400 673.600,329.600 674.000,329.600 674.800 C 329.600 675.460,329.780 676.000,330.000 676.000 C 330.220 676.000,330.400 676.366,330.400 676.813 C 330.400 677.259,330.670 677.729,331.000 677.855 C 331.342 677.987,331.600 678.583,331.600 679.243 C 331.600 680.005,331.805 680.400,332.200 680.400 C 332.620 680.400,332.800 680.824,332.800 681.813 C 332.800 682.699,333.023 683.311,333.400 683.455 C 333.730 683.582,334.000 684.122,334.000 684.655 C 334.000 685.189,334.270 685.729,334.600 685.855 C 334.930 685.982,335.200 686.516,335.200 687.043 C 335.200 687.569,335.380 688.000,335.600 688.000 C 335.820 688.000,336.000 688.456,336.000 689.013 C 336.000 689.569,336.270 690.129,336.600 690.255 C 336.930 690.382,337.200 690.916,337.200 691.443 C 337.200 692.027,337.434 692.400,337.800 692.400 C 338.200 692.400,338.400 692.800,338.400 693.600 C 338.400 694.400,338.600 694.800,339.000 694.800 C 339.354 694.800,339.602 695.169,339.606 695.700 C 339.614 696.857,340.528 699.488,341.133 700.093 C 341.390 700.350,341.600 700.890,341.600 701.293 C 341.600 701.695,341.870 702.129,342.200 702.255 C 342.542 702.387,342.800 702.983,342.800 703.643 C 342.800 704.405,343.005 704.800,343.400 704.800 C 343.773 704.800,344.000 705.178,344.000 705.800 C 344.000 706.422,344.227 706.800,344.600 706.800 C 345.000 706.800,345.200 707.200,345.200 708.000 C 345.200 708.660,345.380 709.200,345.600 709.200 C 345.820 709.200,346.000 709.560,346.000 710.000 C 346.000 710.792,346.267 710.800,373.000 710.800 L 400.000 710.800 400.000 599.400 C 400.000 488.267,399.998 488.000,399.200 488.000 C 398.760 488.000,398.400 487.820,398.400 487.600 C 398.400 487.380,398.130 487.200,397.800 487.200 C 397.470 487.200,397.200 486.930,397.200 486.600 C 397.200 486.200,396.800 486.000,396.000 486.000 C 395.200 486.000,394.800 485.800,394.800 485.400 C 394.800 485.027,394.422 484.800,393.800 484.800 C 393.178 484.800,392.800 484.573,392.800 484.200 C 392.800 483.824,392.420 483.600,391.781 483.600 C 391.208 483.600,390.356 483.162,389.835 482.600 C 389.325 482.050,388.524 481.600,388.054 481.600 C 387.562 481.600,387.200 481.346,387.200 481.000 C 387.200 480.600,386.800 480.400,386.000 480.400 C 385.200 480.400,384.800 480.200,384.800 479.800 C 384.800 479.427,384.422 479.200,383.800 479.200 C 383.178 479.200,382.800 478.973,382.800 478.600 C 382.800 478.211,382.411 478.000,381.695 478.000 C 380.983 478.000,380.323 477.644,379.839 477.000 C 379.409 476.428,378.684 476.000,378.144 476.000 C 377.572 476.000,377.200 475.764,377.200 475.400 C 377.200 475.000,376.800 474.800,376.000 474.800 C 375.200 474.800,374.800 474.600,374.800 474.200 C 374.800 473.827,374.422 473.600,373.800 473.600 C 373.250 473.600,372.799 473.375,372.797 473.100 C 372.794 472.595,371.046 471.600,370.163 471.600 C 369.900 471.600,369.582 471.330,369.455 471.000 C 369.329 470.670,368.769 470.400,368.213 470.400 C 367.579 470.400,367.200 470.175,367.200 469.800 C 367.200 469.400,366.800 469.200,366.000 469.200 C 365.264 469.200,364.800 468.993,364.800 468.664 C 364.800 468.369,364.080 467.890,363.200 467.600 C 362.320 467.310,361.600 466.831,361.600 466.536 C 361.600 466.231,361.169 466.000,360.600 466.000 C 359.978 466.000,359.600 465.773,359.600 465.400 C 359.600 465.000,359.200 464.800,358.400 464.800 C 357.600 464.800,357.200 464.600,357.200 464.200 C 357.200 463.808,356.808 463.600,356.068 463.600 C 355.269 463.600,354.777 463.305,354.400 462.600 C 354.023 461.895,353.531 461.600,352.732 461.600 C 351.992 461.600,351.600 461.392,351.600 461.000 C 351.600 460.627,351.222 460.400,350.600 460.400 C 349.978 460.400,349.600 460.173,349.600 459.800 C 349.600 459.400,349.200 459.200,348.400 459.200 C 347.600 459.200,347.200 459.000,347.200 458.600 C 347.200 458.270,346.930 458.000,346.600 458.000 C 346.270 458.000,346.000 457.820,346.000 457.600 C 346.000 457.380,345.550 457.200,345.000 457.200 C 344.378 457.200,344.000 456.973,344.000 456.600 C 344.000 456.200,343.600 456.000,342.800 456.000 C 342.000 456.000,341.600 455.800,341.600 455.400 C 341.600 455.027,341.222 454.800,340.600 454.800 C 340.050 454.800,339.600 454.570,339.600 454.290 C 339.600 454.009,338.792 453.424,337.804 452.990 C 336.816 452.555,336.006 452.065,336.004 451.900 C 336.002 451.735,335.550 451.600,335.000 451.600 C 334.378 451.600,334.000 451.373,334.000 451.000 C 334.000 450.600,333.600 450.400,332.800 450.400 C 332.000 450.400,331.600 450.200,331.600 449.800 C 331.600 449.470,331.249 449.200,330.821 449.200 C 330.392 449.200,329.556 448.750,328.962 448.200 C 328.369 447.650,327.459 447.200,326.942 447.200 C 326.371 447.200,326.000 446.963,326.000 446.600 C 326.000 446.227,325.622 446.000,325.000 446.000 C 324.378 446.000,324.000 445.773,324.000 445.400 C 324.000 445.000,323.600 444.800,322.800 444.800 C 322.000 444.800,321.600 444.600,321.600 444.200 C 321.600 443.870,321.330 443.600,321.000 443.600 C 320.670 443.600,320.400 443.420,320.400 443.200 C 320.400 442.980,320.034 442.800,319.587 442.800 C 319.141 442.800,318.671 442.530,318.545 442.200 C 318.413 441.858,317.817 441.600,317.157 441.600 C 316.395 441.600,316.000 441.395,316.000 441.000 C 316.000 440.627,315.622 440.400,315.000 440.400 C 314.378 440.400,314.000 440.173,314.000 439.800 C 314.000 439.470,313.730 439.200,313.400 439.200 C 313.070 439.200,312.800 439.034,312.800 438.832 C 312.800 438.629,312.260 438.345,311.600 438.200 C 310.940 438.055,310.400 437.771,310.400 437.568 C 310.400 437.366,309.950 437.200,309.400 437.200 C 308.778 437.200,308.400 436.973,308.400 436.600 C 308.400 436.200,308.000 436.000,307.200 436.000 C 306.400 436.000,306.000 435.800,306.000 435.400 C 306.000 435.027,305.622 434.800,305.000 434.800 C 304.378 434.800,304.000 434.573,304.000 434.200 C 304.000 433.870,303.730 433.600,303.400 433.600 C 303.070 433.600,302.800 433.434,302.800 433.232 C 302.800 433.029,302.260 432.745,301.600 432.600 C 300.940 432.455,300.400 432.171,300.400 431.968 C 300.400 431.766,299.950 431.600,299.400 431.600 C 298.778 431.600,298.400 431.373,298.400 431.000 C 298.400 430.600,298.000 430.400,297.200 430.400 C 296.400 430.400,296.000 430.200,296.000 429.800 C 296.000 429.470,295.749 429.200,295.443 429.200 C 295.136 429.200,294.778 428.919,294.646 428.575 C 294.514 428.231,294.239 428.052,294.035 428.178 C 293.831 428.304,293.393 428.136,293.061 427.804 C 292.729 427.472,291.994 427.200,291.429 427.200 C 290.781 427.200,290.400 426.978,290.400 426.600 C 290.400 426.227,290.022 426.000,289.400 426.000 C 288.778 426.000,288.400 425.773,288.400 425.400 C 288.400 425.070,288.207 424.800,287.971 424.800 C 287.736 424.800,287.273 424.530,286.943 424.200 C 286.613 423.870,285.996 423.600,285.571 423.600 C 285.147 423.600,284.800 423.420,284.800 423.200 C 284.800 422.980,284.350 422.800,283.800 422.800 C 283.178 422.800,282.800 422.573,282.800 422.200 C 282.800 421.800,282.400 421.600,281.600 421.600 C 280.800 421.600,280.400 421.400,280.400 421.000 C 280.400 420.670,280.130 420.400,279.800 420.400 C 279.470 420.400,279.200 420.232,279.200 420.027 C 279.200 419.822,278.795 419.528,278.300 419.373 C 277.805 419.219,277.280 418.905,277.133 418.676 C 276.986 418.447,276.446 418.196,275.933 418.118 C 275.420 418.040,274.940 417.802,274.867 417.588 C 274.793 417.375,274.298 417.200,273.767 417.200 C 273.174 417.200,272.800 416.968,272.800 416.600 C 272.800 416.200,272.400 416.000,271.600 416.000 C 270.940 416.000,270.400 415.820,270.400 415.600 C 270.400 414.989,269.061 413.817,268.183 413.660 C 267.752 413.583,267.310 413.386,267.200 413.222 C 267.090 413.057,266.505 412.802,265.900 412.654 C 265.295 412.506,264.800 412.208,264.800 411.992 C 264.800 411.777,264.350 411.600,263.800 411.600 C 263.178 411.600,262.800 411.373,262.800 411.000 C 262.800 410.670,262.539 410.400,262.220 410.400 C 261.901 410.400,261.481 410.116,261.286 409.769 C 260.988 409.235,260.821 409.309,260.207 410.245 " stroke="none" fill="#8ce4d4" fill-rule="evenodd"></path><path id="path2" d="M0.005 142.100 C 0.008 220.255,0.119 284.605,0.252 285.100 C 0.456 285.860,0.766 286.000,2.247 286.000 C 3.539 286.000,4.000 286.158,4.000 286.600 C 4.000 286.966,4.373 287.200,4.957 287.200 C 5.484 287.200,6.018 287.470,6.145 287.800 C 6.271 288.130,6.831 288.400,7.387 288.400 C 7.944 288.400,8.400 288.580,8.400 288.800 C 8.400 289.020,8.850 289.200,9.400 289.200 C 10.022 289.200,10.400 289.427,10.400 289.800 C 10.400 290.244,10.867 290.400,12.200 290.400 C 13.533 290.400,14.000 290.556,14.000 291.000 C 14.000 291.373,14.378 291.600,15.000 291.600 C 15.622 291.600,16.000 291.827,16.000 292.200 C 16.000 292.600,16.400 292.800,17.200 292.800 C 17.860 292.800,18.400 292.980,18.400 293.200 C 18.400 293.420,18.850 293.600,19.400 293.600 C 20.022 293.600,20.400 293.827,20.400 294.200 C 20.400 294.644,20.867 294.800,22.200 294.800 C 23.533 294.800,24.000 294.956,24.000 295.400 C 24.000 295.773,24.378 296.000,25.000 296.000 C 25.622 296.000,26.000 296.227,26.000 296.600 C 26.000 297.000,26.400 297.200,27.200 297.200 C 28.000 297.200,28.400 297.400,28.400 297.800 C 28.400 298.169,28.775 298.400,29.376 298.400 C 29.913 298.400,30.464 298.580,30.600 298.800 C 30.736 299.020,31.287 299.200,31.824 299.200 C 32.425 299.200,32.800 299.431,32.800 299.800 C 32.800 300.233,33.244 300.400,34.400 300.400 C 35.556 300.400,36.000 300.567,36.000 301.000 C 36.000 301.400,36.400 301.600,37.200 301.600 C 38.000 301.600,38.400 301.800,38.400 302.200 C 38.400 302.573,38.778 302.800,39.400 302.800 C 39.950 302.800,40.400 302.980,40.400 303.200 C 40.400 303.420,40.940 303.600,41.600 303.600 C 42.400 303.600,42.800 303.800,42.800 304.200 C 42.800 304.633,43.244 304.800,44.400 304.800 C 45.556 304.800,46.000 304.967,46.000 305.400 C 46.000 305.800,46.400 306.000,47.200 306.000 C 48.000 306.000,48.400 306.200,48.400 306.600 C 48.400 306.973,48.778 307.200,49.400 307.200 C 49.950 307.200,50.400 307.380,50.400 307.600 C 50.400 307.820,50.940 308.000,51.600 308.000 C 52.400 308.000,52.800 308.200,52.800 308.600 C 52.800 309.033,53.244 309.200,54.400 309.200 C 55.556 309.200,56.000 309.367,56.000 309.800 C 56.000 310.200,56.400 310.400,57.200 310.400 C 58.000 310.400,58.400 310.600,58.400 311.000 C 58.400 311.366,58.773 311.600,59.357 311.600 C 59.884 311.600,60.418 311.870,60.545 312.200 C 60.671 312.530,61.231 312.800,61.787 312.800 C 62.344 312.800,62.800 312.980,62.800 313.200 C 62.800 313.420,63.520 313.600,64.400 313.600 C 65.556 313.600,66.000 313.767,66.000 314.200 C 66.000 314.600,66.400 314.800,67.200 314.800 C 68.000 314.800,68.400 315.000,68.400 315.400 C 68.400 315.773,68.778 316.000,69.400 316.000 C 70.022 316.000,70.400 316.227,70.400 316.600 C 70.400 317.000,70.800 317.200,71.600 317.200 C 72.260 317.200,72.800 317.380,72.800 317.600 C 72.800 317.820,73.520 318.000,74.400 318.000 C 75.556 318.000,76.000 318.167,76.000 318.600 C 76.000 319.000,76.400 319.200,77.200 319.200 C 78.000 319.200,78.400 319.400,78.400 319.800 C 78.400 320.166,78.773 320.400,79.357 320.400 C 79.884 320.400,80.418 320.670,80.545 321.000 C 80.671 321.330,81.231 321.600,81.787 321.600 C 82.421 321.600,82.800 321.825,82.800 322.200 C 82.800 322.633,83.244 322.800,84.400 322.800 C 85.280 322.800,86.000 322.980,86.000 323.200 C 86.000 323.420,86.540 323.600,87.200 323.600 C 88.000 323.600,88.400 323.800,88.400 324.200 C 88.400 324.566,88.773 324.800,89.357 324.800 C 89.884 324.800,90.418 325.070,90.545 325.400 C 90.671 325.730,91.231 326.000,91.787 326.000 C 92.421 326.000,92.800 326.225,92.800 326.600 C 92.800 327.033,93.244 327.200,94.400 327.200 C 95.280 327.200,96.000 327.380,96.000 327.600 C 96.000 327.820,96.540 328.000,97.200 328.000 C 98.000 328.000,98.400 328.200,98.400 328.600 C 98.400 328.973,98.778 329.200,99.400 329.200 C 100.022 329.200,100.400 329.427,100.400 329.800 C 100.400 330.200,100.800 330.400,101.600 330.400 C 102.400 330.400,102.800 330.600,102.800 331.000 C 102.800 331.400,103.200 331.600,104.000 331.600 C 104.800 331.600,105.200 331.800,105.200 332.200 C 105.200 332.633,105.644 332.800,106.800 332.800 C 107.680 332.800,108.400 332.980,108.400 333.200 C 108.400 333.420,108.850 333.600,109.400 333.600 C 110.022 333.600,110.400 333.827,110.400 334.200 C 110.400 334.600,110.800 334.800,111.600 334.800 C 112.400 334.800,112.800 335.000,112.800 335.400 C 112.800 335.800,113.200 336.000,114.000 336.000 C 114.800 336.000,115.200 336.200,115.200 336.600 C 115.200 337.033,115.644 337.200,116.800 337.200 C 117.680 337.200,118.400 337.380,118.400 337.600 C 118.400 337.820,118.850 338.000,119.400 338.000 C 120.022 338.000,120.400 338.227,120.400 338.600 C 120.400 339.000,120.800 339.200,121.600 339.200 C 122.400 339.200,122.800 339.400,122.800 339.800 C 122.800 340.200,123.200 340.400,124.000 340.400 C 124.800 340.400,125.200 340.600,125.200 341.000 C 125.200 341.433,125.644 341.600,126.800 341.600 C 127.956 341.600,128.400 341.767,128.400 342.200 C 128.400 342.569,128.775 342.800,129.376 342.800 C 129.913 342.800,130.464 342.980,130.600 343.200 C 130.736 343.420,131.287 343.600,131.824 343.600 C 132.425 343.600,132.800 343.831,132.800 344.200 C 132.800 344.600,133.200 344.800,134.000 344.800 C 134.800 344.800,135.200 345.000,135.200 345.400 C 135.200 345.833,135.644 346.000,136.800 346.000 C 137.956 346.000,138.400 346.167,138.400 346.600 C 138.400 346.973,138.778 347.200,139.400 347.200 C 139.950 347.200,140.400 347.380,140.400 347.600 C 140.400 347.820,140.940 348.000,141.600 348.000 C 142.400 348.000,142.800 348.200,142.800 348.600 C 142.800 349.000,143.200 349.200,144.000 349.200 C 144.800 349.200,145.200 349.400,145.200 349.800 C 145.200 350.233,145.644 350.400,146.800 350.400 C 147.956 350.400,148.400 350.567,148.400 351.000 C 148.400 351.366,148.773 351.600,149.357 351.600 C 149.884 351.600,150.418 351.870,150.545 352.200 C 150.671 352.530,151.231 352.800,151.787 352.800 C 152.344 352.800,152.800 352.980,152.800 353.200 C 152.800 353.420,153.340 353.600,154.000 353.600 C 154.800 353.600,155.200 353.800,155.200 354.200 C 155.200 354.633,155.644 354.800,156.800 354.800 C 157.956 354.800,158.400 354.967,158.400 355.400 C 158.400 355.773,158.778 356.000,159.400 356.000 C 160.022 356.000,160.400 356.227,160.400 356.600 C 160.400 357.000,160.800 357.200,161.600 357.200 C 162.260 357.200,162.800 357.380,162.800 357.600 C 162.800 357.820,163.340 358.000,164.000 358.000 C 164.660 358.000,165.200 358.178,165.200 358.395 C 165.200 359.016,166.520 360.400,167.113 360.400 C 167.407 360.400,167.548 360.561,167.426 360.758 C 167.155 361.196,168.124 361.600,169.445 361.600 C 169.984 361.600,170.529 361.870,170.655 362.200 C 170.785 362.538,171.381 362.800,172.019 362.800 C 172.643 362.800,173.264 362.980,173.400 363.200 C 173.536 363.420,174.177 363.600,174.824 363.600 C 175.603 363.600,176.000 363.803,176.000 364.200 C 176.000 364.644,176.467 364.800,177.800 364.800 C 179.133 364.800,179.600 364.956,179.600 365.400 C 179.600 365.803,180.003 366.000,180.824 366.000 C 181.497 366.000,181.948 366.161,181.826 366.358 C 181.542 366.818,182.543 367.200,184.033 367.200 C 184.675 367.200,185.200 367.403,185.200 367.651 C 185.200 368.580,196.806 367.382,197.126 366.421 C 197.203 366.190,197.522 366.000,197.833 366.000 C 198.145 366.000,198.400 365.811,198.400 365.581 C 198.400 365.350,198.850 364.745,199.400 364.235 C 199.950 363.725,200.400 362.924,200.400 362.454 C 200.400 361.962,200.654 361.600,201.000 361.600 C 201.330 361.600,201.600 361.349,201.600 361.043 C 201.600 360.736,201.870 360.382,202.200 360.255 C 202.530 360.129,202.800 359.569,202.800 359.013 C 202.800 358.379,203.025 358.000,203.400 358.000 C 203.773 358.000,204.000 357.622,204.000 357.000 C 204.000 356.450,204.180 356.000,204.400 356.000 C 204.620 356.000,204.800 355.730,204.800 355.400 C 204.800 355.070,205.070 354.800,205.400 354.800 C 205.766 354.800,206.000 354.427,206.000 353.843 C 206.000 353.316,206.270 352.782,206.600 352.655 C 206.930 352.529,207.200 352.149,207.200 351.813 C 207.200 351.476,207.377 351.200,207.592 351.200 C 207.808 351.200,208.098 350.750,208.236 350.200 C 208.374 349.650,208.737 349.200,209.043 349.200 C 209.370 349.200,209.600 348.788,209.600 348.200 C 209.600 347.650,209.780 347.200,210.000 347.200 C 210.220 347.200,210.400 346.930,210.400 346.600 C 210.400 346.270,210.670 346.000,211.000 346.000 C 211.400 346.000,211.600 345.600,211.600 344.800 C 211.600 344.000,211.800 343.600,212.200 343.600 C 212.633 343.600,212.800 343.156,212.800 342.000 C 212.800 340.844,212.967 340.400,213.400 340.400 C 213.730 340.400,214.000 340.130,214.000 339.800 C 214.000 339.470,214.180 339.200,214.400 339.200 C 214.620 339.200,214.800 338.750,214.800 338.200 C 214.800 337.578,215.027 337.200,215.400 337.200 C 215.730 337.200,216.000 336.930,216.000 336.600 C 216.000 336.270,216.270 336.000,216.600 336.000 C 217.000 336.000,217.200 335.600,217.200 334.800 C 217.200 334.140,217.378 333.600,217.595 333.600 C 218.377 333.600,219.600 332.204,219.600 331.311 C 219.600 330.810,219.780 330.400,220.000 330.400 C 220.220 330.400,220.400 330.130,220.400 329.800 C 220.400 329.470,220.670 329.200,221.000 329.200 C 221.373 329.200,221.600 328.822,221.600 328.200 C 221.600 327.578,221.827 327.200,222.200 327.200 C 222.530 327.200,222.800 326.930,222.800 326.600 C 222.800 326.270,223.070 326.000,223.400 326.000 C 223.778 326.000,224.000 325.619,224.000 324.971 C 224.000 323.917,224.808 322.800,225.571 322.800 C 225.807 322.800,226.000 322.260,226.000 321.600 C 226.000 320.800,226.200 320.400,226.600 320.400 C 226.930 320.400,227.200 320.130,227.200 319.800 C 227.200 319.470,227.470 319.200,227.800 319.200 C 228.138 319.200,228.400 318.842,228.400 318.381 C 228.400 317.930,228.850 317.145,229.400 316.635 C 229.979 316.098,230.400 315.265,230.400 314.654 C 230.400 313.984,230.618 313.600,231.000 313.600 C 231.330 313.600,231.600 313.420,231.600 313.200 C 231.600 312.980,231.870 312.800,232.200 312.800 C 232.600 312.800,232.800 312.400,232.800 311.600 C 232.800 310.800,233.000 310.400,233.400 310.400 C 233.730 310.400,234.000 310.130,234.000 309.800 C 234.000 309.470,234.180 309.200,234.400 309.200 C 234.620 309.200,234.800 308.750,234.800 308.200 C 234.800 307.578,235.027 307.200,235.400 307.200 C 235.730 307.200,236.000 306.930,236.000 306.600 C 236.000 306.270,236.270 306.000,236.600 306.000 C 237.000 306.000,237.200 305.600,237.200 304.800 C 237.200 304.140,237.378 303.600,237.595 303.600 C 238.377 303.600,239.600 302.204,239.600 301.311 C 239.600 300.810,239.780 300.400,240.000 300.400 C 240.220 300.400,240.400 300.130,240.400 299.800 C 240.400 299.470,240.670 299.200,241.000 299.200 C 241.373 299.200,241.600 298.822,241.600 298.200 C 241.600 297.578,241.827 297.200,242.200 297.200 C 242.530 297.200,242.800 296.930,242.800 296.600 C 242.800 296.270,243.070 296.000,243.400 296.000 C 243.778 296.000,244.000 295.619,244.000 294.971 C 244.000 293.917,244.808 292.800,245.571 292.800 C 245.807 292.800,246.000 292.260,246.000 291.600 C 246.000 290.800,246.200 290.400,246.600 290.400 C 246.930 290.400,247.200 290.130,247.200 289.800 C 247.200 289.470,247.470 289.200,247.800 289.200 C 248.138 289.200,248.400 288.842,248.400 288.381 C 248.400 287.930,248.850 287.145,249.400 286.635 C 249.979 286.098,250.400 285.265,250.400 284.654 C 250.400 283.984,250.618 283.600,251.000 283.600 C 251.330 283.600,251.600 283.420,251.600 283.200 C 251.600 282.980,251.870 282.800,252.200 282.800 C 252.600 282.800,252.800 282.400,252.800 281.600 C 252.800 280.800,253.000 280.400,253.400 280.400 C 253.730 280.400,254.000 280.130,254.000 279.800 C 254.000 279.470,254.180 279.200,254.400 279.200 C 254.620 279.200,254.800 278.750,254.800 278.200 C 254.800 277.578,255.027 277.200,255.400 277.200 C 255.730 277.200,256.000 276.930,256.000 276.600 C 256.000 276.270,256.270 276.000,256.600 276.000 C 257.000 276.000,257.200 275.600,257.200 274.800 C 257.200 274.140,257.378 273.600,257.595 273.600 C 258.377 273.600,259.600 272.204,259.600 271.311 C 259.600 270.810,259.780 270.400,260.000 270.400 C 260.220 270.400,260.400 270.130,260.400 269.800 C 260.400 269.470,260.670 269.200,261.000 269.200 C 261.373 269.200,261.600 268.822,261.600 268.200 C 261.600 267.578,261.827 267.200,262.200 267.200 C 262.530 267.200,262.800 266.930,262.800 266.600 C 262.800 266.270,263.070 266.000,263.400 266.000 C 263.778 266.000,264.000 265.619,264.000 264.971 C 264.000 263.917,264.808 262.800,265.571 262.800 C 265.807 262.800,266.000 262.260,266.000 261.600 C 266.000 260.800,266.200 260.400,266.600 260.400 C 266.930 260.400,267.200 260.130,267.200 259.800 C 267.200 259.470,267.470 259.200,267.800 259.200 C 268.138 259.200,268.400 258.842,268.400 258.381 C 268.400 257.930,268.850 257.145,269.400 256.635 C 269.979 256.098,270.400 255.265,270.400 254.654 C 270.400 253.984,270.618 253.600,271.000 253.600 C 271.330 253.600,271.600 253.420,271.600 253.200 C 271.600 252.980,271.870 252.800,272.200 252.800 C 272.600 252.800,272.800 252.400,272.800 251.600 C 272.800 250.800,273.000 250.400,273.400 250.400 C 273.773 250.400,274.000 250.022,274.000 249.400 C 274.000 248.850,274.180 248.400,274.400 248.400 C 274.620 248.400,274.800 248.130,274.800 247.800 C 274.800 247.470,275.070 247.200,275.400 247.200 C 275.800 247.200,276.000 246.800,276.000 246.000 C 276.000 245.200,276.200 244.800,276.600 244.800 C 276.930 244.800,277.200 244.530,277.200 244.200 C 277.200 243.870,277.470 243.600,277.800 243.600 C 278.173 243.600,278.400 243.222,278.400 242.600 C 278.400 241.978,278.627 241.600,279.000 241.600 C 279.330 241.600,279.600 241.330,279.600 241.000 C 279.600 240.670,279.780 240.400,280.000 240.400 C 280.220 240.400,280.400 239.950,280.400 239.400 C 280.400 238.778,280.627 238.400,281.000 238.400 C 281.330 238.400,281.600 238.130,281.600 237.800 C 281.600 237.470,281.870 237.200,282.200 237.200 C 282.600 237.200,282.800 236.800,282.800 236.000 C 282.800 235.200,283.000 234.800,283.400 234.800 C 283.730 234.800,284.000 234.530,284.000 234.200 C 284.000 233.870,284.180 233.600,284.400 233.600 C 284.620 233.600,284.800 233.150,284.800 232.600 C 284.800 231.978,285.027 231.600,285.400 231.600 C 285.730 231.600,286.000 231.330,286.000 231.000 C 286.000 230.670,286.270 230.400,286.600 230.400 C 286.951 230.400,287.207 230.026,287.217 229.500 C 287.226 229.005,287.766 228.158,288.417 227.619 C 289.100 227.053,289.600 226.249,289.600 225.719 C 289.600 225.213,289.780 224.800,290.000 224.800 C 290.220 224.800,290.400 224.530,290.400 224.200 C 290.400 223.870,290.670 223.600,291.000 223.600 C 291.373 223.600,291.600 223.222,291.600 222.600 C 291.600 221.978,291.827 221.600,292.200 221.600 C 292.530 221.600,292.800 221.330,292.800 221.000 C 292.800 220.670,293.070 220.400,293.400 220.400 C 293.773 220.400,294.000 220.022,294.000 219.400 C 294.000 218.850,294.180 218.400,294.400 218.400 C 294.620 218.400,294.800 218.130,294.800 217.800 C 294.800 217.470,295.070 217.200,295.400 217.200 C 295.800 217.200,296.000 216.800,296.000 216.000 C 296.000 215.200,296.200 214.800,296.600 214.800 C 296.930 214.800,297.200 214.530,297.200 214.200 C 297.200 213.870,297.470 213.600,297.800 213.600 C 298.173 213.600,298.400 213.222,298.400 212.600 C 298.400 211.978,298.627 211.600,299.000 211.600 C 299.330 211.600,299.600 211.330,299.600 211.000 C 299.600 210.670,299.780 210.400,300.000 210.400 C 300.220 210.400,300.400 209.950,300.400 209.400 C 300.400 208.778,300.627 208.400,301.000 208.400 C 301.330 208.400,301.600 208.130,301.600 207.800 C 301.600 207.470,301.870 207.200,302.200 207.200 C 302.600 207.200,302.800 206.800,302.800 206.000 C 302.800 205.200,303.000 204.800,303.400 204.800 C 303.730 204.800,304.000 204.530,304.000 204.200 C 304.000 203.870,304.180 203.600,304.400 203.600 C 304.620 203.600,304.800 203.150,304.800 202.600 C 304.800 201.978,305.027 201.600,305.400 201.600 C 305.730 201.600,306.000 201.330,306.000 201.000 C 306.000 200.670,306.270 200.400,306.600 200.400 C 306.951 200.400,307.207 200.026,307.217 199.500 C 307.226 199.005,307.766 198.158,308.417 197.619 C 309.068 197.079,309.600 196.267,309.600 195.814 C 309.600 195.361,310.050 194.652,310.600 194.239 C 311.172 193.809,311.600 193.084,311.600 192.544 C 311.600 191.972,311.836 191.600,312.200 191.600 C 312.530 191.600,312.800 191.330,312.800 191.000 C 312.800 190.670,313.070 190.400,313.400 190.400 C 313.773 190.400,314.000 190.022,314.000 189.400 C 314.000 188.850,314.180 188.400,314.400 188.400 C 314.620 188.400,314.800 188.130,314.800 187.800 C 314.800 187.470,315.070 187.200,315.400 187.200 C 315.800 187.200,316.000 186.800,316.000 186.000 C 316.000 185.340,316.178 184.800,316.395 184.800 C 317.177 184.800,318.400 183.404,318.400 182.511 C 318.400 181.968,318.642 181.600,319.000 181.600 C 319.330 181.600,319.600 181.330,319.600 181.000 C 319.600 180.670,319.780 180.400,320.000 180.400 C 320.220 180.400,320.400 179.950,320.400 179.400 C 320.400 178.778,320.627 178.400,321.000 178.400 C 321.330 178.400,321.600 178.130,321.600 177.800 C 321.600 177.470,321.870 177.200,322.200 177.200 C 322.600 177.200,322.800 176.800,322.800 176.000 C 322.800 175.340,322.993 174.800,323.229 174.800 C 323.992 174.800,324.800 173.683,324.800 172.629 C 324.800 171.981,325.022 171.600,325.400 171.600 C 325.730 171.600,326.000 171.330,326.000 171.000 C 326.000 170.670,326.270 170.400,326.600 170.400 C 326.973 170.400,327.200 170.022,327.200 169.400 C 327.200 168.778,327.427 168.400,327.800 168.400 C 328.130 168.400,328.400 168.130,328.400 167.800 C 328.400 167.470,328.670 167.200,329.000 167.200 C 329.389 167.200,329.600 166.811,329.600 166.095 C 329.600 165.383,329.956 164.723,330.600 164.239 C 331.172 163.809,331.600 163.084,331.600 162.544 C 331.600 161.972,331.836 161.600,332.200 161.600 C 332.530 161.600,332.800 161.330,332.800 161.000 C 332.800 160.670,333.070 160.400,333.400 160.400 C 333.773 160.400,334.000 160.022,334.000 159.400 C 334.000 158.850,334.180 158.400,334.400 158.400 C 334.620 158.400,334.800 158.130,334.800 157.800 C 334.800 157.470,335.070 157.200,335.400 157.200 C 335.800 157.200,336.000 156.800,336.000 156.000 C 336.000 155.340,336.178 154.800,336.395 154.800 C 337.177 154.800,338.400 153.404,338.400 152.511 C 338.400 151.968,338.642 151.600,339.000 151.600 C 339.330 151.600,339.600 151.330,339.600 151.000 C 339.600 150.670,339.780 150.400,340.000 150.400 C 340.220 150.400,340.400 149.950,340.400 149.400 C 340.400 148.778,340.627 148.400,341.000 148.400 C 341.330 148.400,341.600 148.130,341.600 147.800 C 341.600 147.470,341.870 147.200,342.200 147.200 C 342.600 147.200,342.800 146.800,342.800 146.000 C 342.800 145.340,342.993 144.800,343.229 144.800 C 343.992 144.800,344.800 143.683,344.800 142.629 C 344.800 141.981,345.022 141.600,345.400 141.600 C 345.730 141.600,346.000 141.330,346.000 141.000 C 346.000 140.670,346.270 140.400,346.600 140.400 C 346.973 140.400,347.200 140.022,347.200 139.400 C 347.200 138.778,347.427 138.400,347.800 138.400 C 348.130 138.400,348.400 138.130,348.400 137.800 C 348.400 137.470,348.670 137.200,349.000 137.200 C 349.400 137.200,349.600 136.800,349.600 136.000 C 349.600 135.340,349.780 134.800,350.000 134.800 C 350.220 134.800,350.400 134.350,350.400 133.800 C 350.400 133.178,350.627 132.800,351.000 132.800 C 351.330 132.800,351.600 132.530,351.600 132.200 C 351.600 131.870,351.870 131.600,352.200 131.600 C 352.600 131.600,352.800 131.200,352.800 130.400 C 352.800 129.740,352.993 129.200,353.229 129.200 C 353.992 129.200,354.800 128.083,354.800 127.029 C 354.800 126.381,355.022 126.000,355.400 126.000 C 355.730 126.000,356.000 125.730,356.000 125.400 C 356.000 125.070,356.270 124.800,356.600 124.800 C 356.973 124.800,357.200 124.422,357.200 123.800 C 357.200 123.178,357.427 122.800,357.800 122.800 C 358.130 122.800,358.400 122.530,358.400 122.200 C 358.400 121.870,358.670 121.600,359.000 121.600 C 359.378 121.600,359.600 121.219,359.600 120.571 C 359.600 119.517,360.408 118.400,361.171 118.400 C 361.407 118.400,361.600 117.860,361.600 117.200 C 361.600 116.400,361.800 116.000,362.200 116.000 C 362.530 116.000,362.800 115.730,362.800 115.400 C 362.800 115.070,363.070 114.800,363.400 114.800 C 363.773 114.800,364.000 114.422,364.000 113.800 C 364.000 113.250,364.180 112.800,364.400 112.800 C 364.620 112.800,364.800 112.530,364.800 112.200 C 364.800 111.870,365.070 111.600,365.400 111.600 C 365.800 111.600,366.000 111.200,366.000 110.400 C 366.000 109.600,366.200 109.200,366.600 109.200 C 366.930 109.200,367.200 109.020,367.200 108.800 C 367.200 108.580,367.470 108.400,367.800 108.400 C 368.200 108.400,368.400 108.000,368.400 107.200 C 368.400 106.400,368.600 106.000,369.000 106.000 C 369.330 106.000,369.600 105.730,369.600 105.400 C 369.600 105.070,369.780 104.800,370.000 104.800 C 370.220 104.800,370.400 104.350,370.400 103.800 C 370.400 103.178,370.627 102.800,371.000 102.800 C 371.330 102.800,371.600 102.530,371.600 102.200 C 371.600 101.870,371.870 101.600,372.200 101.600 C 372.538 101.600,372.800 101.242,372.800 100.781 C 372.800 100.330,373.250 99.545,373.800 99.035 C 374.379 98.498,374.800 97.665,374.800 97.054 C 374.800 96.384,375.018 96.000,375.400 96.000 C 375.730 96.000,376.000 95.730,376.000 95.400 C 376.000 95.070,376.270 94.800,376.600 94.800 C 376.973 94.800,377.200 94.422,377.200 93.800 C 377.200 93.178,377.427 92.800,377.800 92.800 C 378.130 92.800,378.400 92.530,378.400 92.200 C 378.400 91.870,378.670 91.600,379.000 91.600 C 379.373 91.600,379.600 91.222,379.600 90.600 C 379.600 90.050,379.780 89.600,380.000 89.600 C 380.220 89.600,380.400 89.330,380.400 89.000 C 380.400 88.670,380.670 88.400,381.000 88.400 C 381.400 88.400,381.600 88.000,381.600 87.200 C 381.600 86.400,381.800 86.000,382.200 86.000 C 382.530 86.000,382.800 85.730,382.800 85.400 C 382.800 85.070,383.070 84.800,383.400 84.800 C 383.773 84.800,384.000 84.422,384.000 83.800 C 384.000 83.250,384.180 82.800,384.400 82.800 C 384.620 82.800,384.800 82.530,384.800 82.200 C 384.800 81.870,385.070 81.600,385.400 81.600 C 385.733 81.600,386.000 81.244,386.000 80.800 C 386.000 79.967,387.306 78.400,388.000 78.400 C 388.220 78.400,388.400 77.860,388.400 77.200 C 388.400 76.400,388.600 76.000,389.000 76.000 C 389.330 76.000,389.600 75.730,389.600 75.400 C 389.600 75.070,389.780 74.800,390.000 74.800 C 390.220 74.800,390.400 74.350,390.400 73.800 C 390.400 73.178,390.627 72.800,391.000 72.800 C 391.330 72.800,391.600 72.530,391.600 72.200 C 391.600 71.870,391.870 71.600,392.200 71.600 C 392.538 71.600,392.800 71.242,392.800 70.781 C 392.800 70.330,393.250 69.545,393.800 69.035 C 394.379 68.498,394.800 67.665,394.800 67.054 C 394.800 66.384,395.018 66.000,395.400 66.000 C 395.730 66.000,396.000 65.730,396.000 65.400 C 396.000 65.070,396.270 64.800,396.600 64.800 C 396.973 64.800,397.200 64.422,397.200 63.800 C 397.200 63.178,397.427 62.800,397.800 62.800 C 398.130 62.800,398.400 62.530,398.400 62.200 C 398.400 61.870,398.646 61.600,398.948 61.600 C 399.913 61.600,399.991 59.181,399.996 29.300 L 400.000 0.000 382.774 0.000 C 364.625 0.000,364.000 0.060,364.000 1.814 C 364.000 2.424,363.771 2.800,363.400 2.800 C 363.025 2.800,362.800 3.179,362.800 3.813 C 362.800 4.369,362.530 4.929,362.200 5.055 C 361.870 5.182,361.600 5.716,361.600 6.243 C 361.600 6.827,361.366 7.200,361.000 7.200 C 360.600 7.200,360.400 7.600,360.400 8.400 C 360.400 9.060,360.220 9.600,360.000 9.600 C 359.780 9.600,359.600 10.050,359.600 10.600 C 359.600 11.222,359.373 11.600,359.000 11.600 C 358.670 11.600,358.400 11.870,358.400 12.200 C 358.400 12.530,358.130 12.800,357.800 12.800 C 357.434 12.800,357.200 13.173,357.200 13.757 C 357.200 14.284,356.930 14.818,356.600 14.945 C 356.270 15.071,356.000 15.631,356.000 16.187 C 356.000 16.744,355.820 17.200,355.600 17.200 C 355.380 17.200,355.200 17.740,355.200 18.400 C 355.200 19.200,355.000 19.600,354.600 19.600 C 354.227 19.600,354.000 19.978,354.000 20.600 C 354.000 21.222,353.773 21.600,353.400 21.600 C 353.000 21.600,352.800 22.000,352.800 22.800 C 352.800 23.600,352.600 24.000,352.200 24.000 C 351.827 24.000,351.600 24.378,351.600 25.000 C 351.600 25.622,351.373 26.000,351.000 26.000 C 350.600 26.000,350.400 26.400,350.400 27.200 C 350.400 27.860,350.220 28.400,350.000 28.400 C 349.780 28.400,349.600 28.850,349.600 29.400 C 349.600 30.022,349.373 30.400,349.000 30.400 C 348.600 30.400,348.400 30.800,348.400 31.600 C 348.400 32.400,348.200 32.800,347.800 32.800 C 347.470 32.800,347.200 33.070,347.200 33.400 C 347.200 33.730,346.930 34.000,346.600 34.000 C 346.227 34.000,346.000 34.378,346.000 35.000 C 346.000 35.550,345.820 36.000,345.600 36.000 C 345.380 36.000,345.200 36.540,345.200 37.200 C 345.200 38.000,345.000 38.400,344.600 38.400 C 344.234 38.400,344.000 38.773,344.000 39.357 C 344.000 39.884,343.730 40.418,343.400 40.545 C 343.070 40.671,342.800 41.231,342.800 41.787 C 342.800 42.421,342.575 42.800,342.200 42.800 C 341.834 42.800,341.600 43.173,341.600 43.757 C 341.600 44.284,341.330 44.818,341.000 44.945 C 340.670 45.071,340.400 45.631,340.400 46.187 C 340.400 46.744,340.220 47.200,340.000 47.200 C 339.780 47.200,339.600 47.740,339.600 48.400 C 339.600 49.200,339.400 49.600,339.000 49.600 C 338.627 49.600,338.400 49.978,338.400 50.600 C 338.400 51.222,338.173 51.600,337.800 51.600 C 337.400 51.600,337.200 52.000,337.200 52.800 C 337.200 53.460,337.007 54.000,336.771 54.000 C 336.008 54.000,335.200 55.117,335.200 56.171 C 335.200 56.819,334.978 57.200,334.600 57.200 C 334.200 57.200,334.000 57.600,334.000 58.400 C 334.000 59.200,333.800 59.600,333.400 59.600 C 333.027 59.600,332.800 59.978,332.800 60.600 C 332.800 61.222,332.573 61.600,332.200 61.600 C 331.805 61.600,331.600 61.995,331.600 62.757 C 331.600 63.417,331.342 64.013,331.000 64.145 C 330.670 64.271,330.400 64.741,330.400 65.187 C 330.400 65.634,330.220 66.000,330.000 66.000 C 329.780 66.000,329.600 66.540,329.600 67.200 C 329.600 68.000,329.400 68.400,329.000 68.400 C 328.627 68.400,328.400 68.778,328.400 69.400 C 328.400 70.022,328.173 70.400,327.800 70.400 C 327.400 70.400,327.200 70.800,327.200 71.600 C 327.200 72.400,327.000 72.800,326.600 72.800 C 326.248 72.800,325.995 73.172,325.987 73.700 C 325.973 74.732,325.128 76.000,324.456 76.000 C 324.205 76.000,324.000 76.540,324.000 77.200 C 324.000 78.000,323.800 78.400,323.400 78.400 C 323.027 78.400,322.800 78.778,322.800 79.400 C 322.800 80.022,322.573 80.400,322.200 80.400 C 321.800 80.400,321.600 80.800,321.600 81.600 C 321.600 82.400,321.400 82.800,321.000 82.800 C 320.631 82.800,320.400 83.175,320.400 83.776 C 320.400 84.313,320.220 84.864,320.000 85.000 C 319.780 85.136,319.600 85.687,319.600 86.224 C 319.600 86.825,319.369 87.200,319.000 87.200 C 318.600 87.200,318.400 87.600,318.400 88.400 C 318.400 89.200,318.200 89.600,317.800 89.600 C 317.434 89.600,317.200 89.973,317.200 90.557 C 317.200 91.084,316.930 91.618,316.600 91.745 C 316.270 91.871,316.000 92.431,316.000 92.987 C 316.000 93.544,315.820 94.000,315.600 94.000 C 315.380 94.000,315.200 94.450,315.200 95.000 C 315.200 95.622,314.973 96.000,314.600 96.000 C 314.270 96.000,314.000 96.270,314.000 96.600 C 314.000 96.930,313.730 97.200,313.400 97.200 C 313.000 97.200,312.800 97.600,312.800 98.400 C 312.800 99.200,312.600 99.600,312.200 99.600 C 311.827 99.600,311.600 99.978,311.600 100.600 C 311.600 101.222,311.373 101.600,311.000 101.600 C 310.600 101.600,310.400 102.000,310.400 102.800 C 310.400 103.460,310.220 104.000,310.000 104.000 C 309.780 104.000,309.600 104.450,309.600 105.000 C 309.600 105.622,309.373 106.000,309.000 106.000 C 308.600 106.000,308.400 106.400,308.400 107.200 C 308.400 108.000,308.200 108.400,307.800 108.400 C 307.427 108.400,307.200 108.778,307.200 109.400 C 307.200 110.022,306.973 110.400,306.600 110.400 C 306.200 110.400,306.000 110.800,306.000 111.600 C 306.000 112.260,305.820 112.800,305.600 112.800 C 305.380 112.800,305.200 113.250,305.200 113.800 C 305.200 114.422,304.973 114.800,304.600 114.800 C 304.200 114.800,304.000 115.200,304.000 116.000 C 304.000 116.800,303.800 117.200,303.400 117.200 C 303.070 117.200,302.800 117.470,302.800 117.800 C 302.800 118.130,302.530 118.400,302.200 118.400 C 301.827 118.400,301.600 118.778,301.600 119.400 C 301.600 120.022,301.373 120.400,301.000 120.400 C 300.600 120.400,300.400 120.800,300.400 121.600 C 300.400 122.260,300.220 122.800,300.000 122.800 C 299.780 122.800,299.600 123.250,299.600 123.800 C 299.600 124.422,299.373 124.800,299.000 124.800 C 298.600 124.800,298.400 125.200,298.400 126.000 C 298.400 126.800,298.200 127.200,297.800 127.200 C 297.425 127.200,297.200 127.579,297.200 128.213 C 297.200 128.769,296.930 129.329,296.600 129.455 C 296.270 129.582,296.000 130.116,296.000 130.643 C 296.000 131.169,295.820 131.600,295.600 131.600 C 295.380 131.600,295.200 132.140,295.200 132.800 C 295.200 133.600,295.000 134.000,294.600 134.000 C 294.227 134.000,294.000 134.378,294.000 135.000 C 294.000 135.622,293.773 136.000,293.400 136.000 C 293.000 136.000,292.800 136.400,292.800 137.200 C 292.800 138.000,292.600 138.400,292.200 138.400 C 291.870 138.400,291.600 138.670,291.600 139.000 C 291.600 139.330,291.375 139.555,291.100 139.500 C 290.819 139.444,290.545 139.881,290.473 140.500 C 290.404 141.105,290.179 141.600,289.973 141.600 C 289.768 141.600,289.600 142.140,289.600 142.800 C 289.600 143.600,289.400 144.000,289.000 144.000 C 288.627 144.000,288.400 144.378,288.400 145.000 C 288.400 145.622,288.173 146.000,287.800 146.000 C 287.400 146.000,287.200 146.400,287.200 147.200 C 287.200 148.000,287.000 148.400,286.600 148.400 C 286.227 148.400,286.000 148.778,286.000 149.400 C 286.000 149.950,285.820 150.400,285.600 150.400 C 285.380 150.400,285.200 150.940,285.200 151.600 C 285.200 152.400,285.000 152.800,284.600 152.800 C 284.227 152.800,284.000 153.178,284.000 153.800 C 284.000 154.422,283.773 154.800,283.400 154.800 C 283.000 154.800,282.800 155.200,282.800 156.000 C 282.800 156.800,282.600 157.200,282.200 157.200 C 281.870 157.200,281.600 157.451,281.600 157.757 C 281.600 158.064,281.330 158.418,281.000 158.545 C 280.670 158.671,280.400 159.141,280.400 159.587 C 280.400 160.034,280.220 160.400,280.000 160.400 C 279.780 160.400,279.600 160.940,279.600 161.600 C 279.600 162.400,279.400 162.800,279.000 162.800 C 278.627 162.800,278.400 163.178,278.400 163.800 C 278.400 164.422,278.173 164.800,277.800 164.800 C 277.400 164.800,277.200 165.200,277.200 166.000 C 277.200 166.800,277.000 167.200,276.600 167.200 C 276.227 167.200,276.000 167.578,276.000 168.200 C 276.000 168.750,275.820 169.200,275.600 169.200 C 275.380 169.200,275.200 169.740,275.200 170.400 C 275.200 171.200,275.000 171.600,274.600 171.600 C 274.200 171.600,274.000 172.000,274.000 172.800 C 274.000 173.600,273.800 174.000,273.400 174.000 C 273.027 174.000,272.800 174.378,272.800 175.000 C 272.800 175.622,272.573 176.000,272.200 176.000 C 271.800 176.000,271.600 176.400,271.600 177.200 C 271.600 177.860,271.407 178.400,271.171 178.400 C 270.408 178.400,269.600 179.517,269.600 180.571 C 269.600 181.219,269.378 181.600,269.000 181.600 C 268.600 181.600,268.400 182.000,268.400 182.800 C 268.400 183.600,268.200 184.000,267.800 184.000 C 267.434 184.000,267.200 184.373,267.200 184.957 C 267.200 185.484,266.930 186.018,266.600 186.145 C 266.270 186.271,266.000 186.831,266.000 187.387 C 266.000 187.944,265.820 188.400,265.600 188.400 C 265.380 188.400,265.200 188.850,265.200 189.400 C 265.200 190.022,264.973 190.400,264.600 190.400 C 264.200 190.400,264.000 190.800,264.000 191.600 C 264.000 192.400,263.800 192.800,263.400 192.800 C 263.027 192.800,262.800 193.178,262.800 193.800 C 262.800 194.422,262.573 194.800,262.200 194.800 C 261.800 194.800,261.600 195.200,261.600 196.000 C 261.600 196.800,261.400 197.200,261.000 197.200 C 260.627 197.200,260.400 197.578,260.400 198.200 C 260.400 198.750,260.220 199.200,260.000 199.200 C 259.780 199.200,259.600 199.470,259.600 199.800 C 259.600 200.130,259.330 200.400,259.000 200.400 C 258.600 200.400,258.400 200.800,258.400 201.600 C 258.400 202.400,258.200 202.800,257.800 202.800 C 257.427 202.800,257.200 203.178,257.200 203.800 C 257.200 204.422,256.973 204.800,256.600 204.800 C 256.200 204.800,256.000 205.200,256.000 206.000 C 256.000 206.660,255.820 207.200,255.600 207.200 C 255.380 207.200,255.200 207.650,255.200 208.200 C 255.200 208.822,254.973 209.200,254.600 209.200 C 254.200 209.200,254.000 209.600,254.000 210.400 C 254.000 211.200,253.800 211.600,253.400 211.600 C 253.025 211.600,252.800 211.979,252.800 212.613 C 252.800 213.169,252.530 213.729,252.200 213.855 C 251.870 213.982,251.600 214.516,251.600 215.043 C 251.600 215.627,251.366 216.000,251.000 216.000 C 250.600 216.000,250.400 216.400,250.400 217.200 C 250.400 217.860,250.220 218.400,250.000 218.400 C 249.780 218.400,249.600 218.850,249.600 219.400 C 249.600 220.022,249.373 220.400,249.000 220.400 C 248.670 220.400,248.400 220.670,248.400 221.000 C 248.400 221.330,248.130 221.600,247.800 221.600 C 247.434 221.600,247.200 221.973,247.200 222.557 C 247.200 223.084,246.930 223.618,246.600 223.745 C 246.270 223.871,246.000 224.431,246.000 224.987 C 246.000 225.544,245.820 226.000,245.600 226.000 C 245.380 226.000,245.200 226.540,245.200 227.200 C 245.200 228.000,245.000 228.400,244.600 228.400 C 244.227 228.400,244.000 228.778,244.000 229.400 C 244.000 230.022,243.773 230.400,243.400 230.400 C 243.000 230.400,242.800 230.800,242.800 231.600 C 242.800 232.400,242.600 232.800,242.200 232.800 C 241.834 232.800,241.600 233.173,241.600 233.757 C 241.600 234.284,241.330 234.818,241.000 234.945 C 240.670 235.071,240.400 235.631,240.400 236.187 C 240.400 236.744,240.220 237.200,240.000 237.200 C 239.780 237.200,239.600 237.650,239.600 238.200 C 239.600 238.822,239.373 239.200,239.000 239.200 C 238.600 239.200,238.400 239.600,238.400 240.400 C 238.400 241.200,238.200 241.600,237.800 241.600 C 237.470 241.600,237.200 241.870,237.200 242.200 C 237.200 242.530,236.930 242.800,236.600 242.800 C 236.227 242.800,236.000 243.178,236.000 243.800 C 236.000 244.350,235.820 244.800,235.600 244.800 C 235.380 244.800,235.200 245.340,235.200 246.000 C 235.200 246.800,235.000 247.200,234.600 247.200 C 234.234 247.200,234.000 247.573,234.000 248.157 C 234.000 248.684,233.730 249.218,233.400 249.345 C 233.070 249.471,232.800 250.031,232.800 250.587 C 232.800 251.221,232.575 251.600,232.200 251.600 C 231.834 251.600,231.600 251.973,231.600 252.557 C 231.600 253.084,231.330 253.618,231.000 253.745 C 230.670 253.871,230.400 254.431,230.400 254.987 C 230.400 255.544,230.220 256.000,230.000 256.000 C 229.780 256.000,229.600 256.540,229.600 257.200 C 229.600 258.000,229.400 258.400,229.000 258.400 C 228.627 258.400,228.400 258.778,228.400 259.400 C 228.400 260.022,228.173 260.400,227.800 260.400 C 227.400 260.400,227.200 260.800,227.200 261.600 C 227.200 262.260,227.007 262.800,226.771 262.800 C 226.008 262.800,225.200 263.917,225.200 264.971 C 225.200 265.619,224.978 266.000,224.600 266.000 C 224.200 266.000,224.000 266.400,224.000 267.200 C 224.000 268.000,223.800 268.400,223.400 268.400 C 223.027 268.400,222.800 268.778,222.800 269.400 C 222.800 270.022,222.573 270.400,222.200 270.400 C 221.800 270.400,221.600 270.800,221.600 271.600 C 221.600 272.400,221.400 272.800,221.000 272.800 C 220.627 272.800,220.400 273.178,220.400 273.800 C 220.400 274.350,220.220 274.800,220.000 274.800 C 219.780 274.800,219.600 275.340,219.600 276.000 C 219.600 276.800,219.400 277.200,219.000 277.200 C 218.634 277.200,218.400 277.573,218.400 278.157 C 218.400 278.684,218.130 279.218,217.800 279.345 C 217.470 279.471,217.200 280.031,217.200 280.587 C 217.200 281.221,216.975 281.600,216.600 281.600 C 216.248 281.600,215.995 281.972,215.987 282.500 C 215.973 283.532,215.128 284.800,214.456 284.800 C 214.205 284.800,214.000 285.340,214.000 286.000 C 214.000 286.800,213.800 287.200,213.400 287.200 C 213.027 287.200,212.800 287.578,212.800 288.200 C 212.800 288.822,212.573 289.200,212.200 289.200 C 211.800 289.200,211.600 289.600,211.600 290.400 C 211.600 291.200,211.400 291.600,211.000 291.600 C 210.600 291.600,210.400 291.200,210.400 290.400 C 210.400 289.600,210.600 289.200,211.000 289.200 C 211.491 289.200,211.600 288.511,211.600 285.400 C 211.600 282.289,211.709 281.600,212.200 281.600 C 212.686 281.600,212.800 280.956,212.800 278.200 C 212.800 275.444,212.914 274.800,213.400 274.800 C 213.891 274.800,214.000 274.111,214.000 271.000 C 214.000 268.733,214.161 267.200,214.400 267.200 C 214.635 267.200,214.800 265.800,214.800 263.800 C 214.800 261.044,214.914 260.400,215.400 260.400 C 215.886 260.400,216.000 259.756,216.000 257.000 C 216.000 254.244,216.114 253.600,216.600 253.600 C 217.091 253.600,217.200 252.911,217.200 249.800 C 217.200 246.689,217.309 246.000,217.800 246.000 C 218.286 246.000,218.400 245.356,218.400 242.600 C 218.400 239.844,218.514 239.200,219.000 239.200 C 219.483 239.200,219.600 238.578,219.600 236.000 C 219.600 234.133,219.767 232.800,220.000 232.800 C 220.240 232.800,220.400 231.200,220.400 228.800 C 220.400 225.511,220.507 224.800,221.000 224.800 C 221.483 224.800,221.600 224.178,221.600 221.600 C 221.600 219.022,221.717 218.400,222.200 218.400 C 222.693 218.400,222.800 217.689,222.800 214.400 C 222.800 211.111,222.907 210.400,223.400 210.400 C 223.886 210.400,224.000 209.756,224.000 207.000 C 224.000 205.000,224.165 203.600,224.400 203.600 C 224.633 203.600,224.800 202.267,224.800 200.400 C 224.800 197.822,224.917 197.200,225.400 197.200 C 225.893 197.200,226.000 196.489,226.000 193.200 C 226.000 189.911,226.107 189.200,226.600 189.200 C 227.083 189.200,227.200 188.578,227.200 186.000 C 227.200 183.422,227.317 182.800,227.800 182.800 C 228.293 182.800,228.400 182.089,228.400 178.800 C 228.400 175.511,228.507 174.800,229.000 174.800 C 229.483 174.800,229.600 174.178,229.600 171.600 C 229.600 169.733,229.767 168.400,230.000 168.400 C 230.235 168.400,230.400 167.000,230.400 165.000 C 230.400 162.244,230.514 161.600,231.000 161.600 C 231.491 161.600,231.600 160.911,231.600 157.800 C 231.600 154.689,231.709 154.000,232.200 154.000 C 232.686 154.000,232.800 153.356,232.800 150.600 C 232.800 147.844,232.914 147.200,233.400 147.200 C 233.886 147.200,234.000 146.556,234.000 143.800 C 234.000 141.800,234.165 140.400,234.400 140.400 C 234.639 140.400,234.800 138.867,234.800 136.600 C 234.800 133.489,234.909 132.800,235.400 132.800 C 235.886 132.800,236.000 132.156,236.000 129.400 C 236.000 126.644,236.114 126.000,236.600 126.000 C 237.091 126.000,237.200 125.311,237.200 122.200 C 237.200 119.089,237.309 118.400,237.800 118.400 C 238.286 118.400,238.400 117.756,238.400 115.000 C 238.400 112.244,238.514 111.600,239.000 111.600 C 239.486 111.600,239.600 110.956,239.600 108.200 C 239.600 106.200,239.765 104.800,240.000 104.800 C 240.239 104.800,240.400 103.267,240.400 101.000 C 240.400 97.889,240.509 97.200,241.000 97.200 C 241.486 97.200,241.600 96.556,241.600 93.800 C 241.600 91.044,241.714 90.400,242.200 90.400 C 242.691 90.400,242.800 89.711,242.800 86.600 C 242.800 83.489,242.909 82.800,243.400 82.800 C 243.886 82.800,244.000 82.156,244.000 79.400 C 244.000 77.400,244.165 76.000,244.400 76.000 C 244.633 76.000,244.800 74.667,244.800 72.800 C 244.800 70.222,244.917 69.600,245.400 69.600 C 245.893 69.600,246.000 68.889,246.000 65.600 C 246.000 62.311,246.107 61.600,246.600 61.600 C 247.086 61.600,247.200 60.956,247.200 58.200 C 247.200 55.444,247.314 54.800,247.800 54.800 C 248.283 54.800,248.400 54.183,248.400 51.643 C 248.400 49.205,248.537 48.433,249.000 48.255 C 249.475 48.073,249.600 47.232,249.600 44.213 C 249.600 41.938,249.761 40.400,250.000 40.400 C 250.233 40.400,250.400 39.067,250.400 37.200 C 250.400 34.622,250.517 34.000,251.000 34.000 C 251.493 34.000,251.600 33.289,251.600 30.000 C 251.600 26.711,251.707 26.000,252.200 26.000 C 252.683 26.000,252.800 25.383,252.800 22.843 C 252.800 20.405,252.937 19.633,253.400 19.455 C 253.864 19.277,254.000 18.499,254.000 16.013 C 254.000 14.138,254.167 12.800,254.400 12.800 C 254.640 12.800,254.800 11.200,254.800 8.800 C 254.800 5.511,254.907 4.800,255.400 4.800 C 255.867 4.800,256.000 4.267,256.000 2.400 L 256.000 0.000 128.000 0.000 L 0.000 0.000 0.005 142.100 M221.200 356.392 C 220.675 356.724,220.686 356.857,221.290 357.462 C 221.670 357.842,222.120 358.003,222.290 357.821 C 222.461 357.639,222.385 357.413,222.122 357.319 C 221.860 357.225,221.744 356.890,221.865 356.574 C 222.122 355.904,222.016 355.875,221.200 356.392 M257.800 556.706 C 257.275 557.092,257.102 558.000,257.553 558.000 C 257.748 558.000,258.001 557.640,258.116 557.200 C 258.351 556.301,258.351 556.301,257.800 556.706 " stroke="none" fill="#fc8c7c" fill-rule="evenodd"></path></g></svg>