<?xml version="1.0" standalone="no"?>
<!DOCTYPE svg PUBLIC "-//W3C//DTD SVG 20010904//EN"
 "http://www.w3.org/TR/2001/REC-SVG-20010904/DTD/svg10.dtd">
<svg version="1.0" xmlns="http://www.w3.org/2000/svg"
 width="360.000000pt" height="640.000000pt" viewBox="0 0 360.000000 640.000000"
 preserveAspectRatio="xMidYMid meet">

<g transform="translate(0.000000,640.000000) scale(0.100000,-0.100000)"
fill="#FFCD64" stroke="none">
<path d="M0 5335 l0 -1066 33 16 32 16 -32 -26 -33 -26 0 -635 c0 -349 2 -634
5 -634 3 0 34 23 69 50 94 74 97 61 6 -26 l-80 -77 0 -473 c0 -261 3 -474 6
-474 15 0 917 676 1137 852 121 97 209 158 319 221 216 123 213 112 -22 -87
-363 -307 -660 -580 -766 -704 -80 -94 -104 -145 -104 -221 l0 -60 -285 -192
-285 -191 0 -485 c0 -387 3 -483 13 -476 6 6 104 84 217 175 113 90 210 167
217 171 6 4 3 -14 -8 -43 -26 -69 -25 -172 2 -245 12 -33 40 -77 69 -108 l48
-52 -261 -265 -262 -265 274 -3 274 -2 211 208 c116 114 330 318 476 452 545
502 636 586 677 627 52 52 70 109 53 166 l-11 39 103 106 c137 141 223 243
249 294 31 61 24 144 -17 195 -66 82 -161 102 -287 59 -38 -12 -62 -17 -55
-10 7 6 150 104 318 217 340 228 667 435 983 623 223 132 267 166 298 226 26
52 26 174 0 226 -65 126 -197 162 -374 101 l-89 -31 -37 36 c-42 41 -96 66
-143 66 l-33 1 36 32 c19 17 125 111 235 208 109 97 250 226 312 286 l112 110
0 326 c0 375 12 339 -107 311 -211 -48 -774 -254 -891 -326 -18 -11 -35 -19
-37 -17 -2 2 30 53 70 113 41 60 82 131 91 159 19 56 14 128 -10 176 l-16 30
188 133 c329 233 482 350 645 491 l67 59 0 354 0 354 -1800 0 -1800 0 0 -1065z"/>
</g>
</svg>
