<svg id="svg" xmlns="http://www.w3.org/2000/svg" xmlns:xlink="http://www.w3.org/1999/xlink" width="400" height="361.53846153846155" viewBox="0, 0, 400,361.53846153846155"><g id="svgg"><path id="path0" d="M75.661 58.422 C 65.657 68.425,61.656 104.624,66.189 144.101 C 67.947 159.405,67.862 163.026,65.417 177.291 C 49.668 269.177,103.132 329.740,200.000 329.740 C 296.868 329.740,350.332 269.177,334.583 177.291 C 332.138 163.026,332.053 159.405,333.811 144.101 C 338.344 104.624,334.343 68.425,324.339 58.422 C 312.723 46.806,281.370 55.588,252.896 78.433 C 238.151 90.264,238.029 90.303,226.923 86.706 C 221.511 84.954,213.531 84.215,200.000 84.215 C 186.469 84.215,178.489 84.954,173.077 86.706 C 161.971 90.303,161.849 90.264,147.104 78.433 C 118.630 55.588,87.277 46.806,75.661 58.422 M162.878 172.769 C 178.680 187.295,173.764 215.385,155.420 215.385 C 138.539 215.385,128.483 183.526,141.651 171.760 C 147.496 166.536,156.567 166.968,162.878 172.769 M258.532 171.923 C 267.152 179.625,265.439 200.952,255.394 210.997 C 244.785 221.606,227.692 212.987,227.692 197.028 C 227.692 174.863,245.552 160.324,258.532 171.923 M210.944 212.483 C 213.667 215.206,214.043 216.894,213.255 222.867 C 212.427 229.142,212.941 231.040,217.528 238.645 C 224.829 250.750,225.220 252.663,221.387 257.536 C 216.672 263.530,211.326 262.454,205.438 254.325 C 202.870 250.780,200.423 247.880,200.000 247.880 C 199.577 247.880,197.130 250.780,194.562 254.325 C 188.674 262.454,183.328 263.530,178.613 257.536 C 174.780 252.663,175.171 250.750,182.472 238.645 C 187.059 231.040,187.573 229.142,186.745 222.867 C 185.451 213.060,189.173 209.231,200.000 209.231 C 205.779 209.231,208.501 210.040,210.944 212.483 " stroke="none" fill="#000000" fill-rule="evenodd"></path></g></svg>