<svg id="svg" xmlns="http://www.w3.org/2000/svg" xmlns:xlink="http://www.w3.org/1999/xlink" width="400" height="687.037037037037" viewBox="0, 0, 400,687.037037037037" version="1.1"><g id="svgg"><path id="path0" d="M221.446 1.545 C 219.411 3.192,219.290 4.241,217.314 37.121 L 215.278 71.000 209.441 75.853 C 177.188 102.671,163.381 154.975,181.740 180.796 C 189.794 192.124,215.197 207.457,233.565 212.077 C 239.083 213.465,239.110 213.295,232.177 220.861 C 222.827 231.065,212.497 244.322,207.226 252.884 L 202.315 260.860 197.034 260.398 C 176.349 258.587,139.037 269.344,102.371 287.688 C 65.874 305.948,43.438 337.010,20.580 400.926 C 14.438 418.100,14.319 418.531,9.731 440.282 C -3.037 500.808,-2.167 582.438,11.615 617.205 C 27.795 658.020,42.675 669.592,92.430 680.058 C 138.508 689.751,227.709 687.381,283.840 674.973 C 355.474 659.138,400.000 600.631,400.000 522.340 C 400.000 499.155,395.637 488.962,383.333 483.404 C 359.439 472.611,341.331 510.081,360.682 530.277 C 375.754 546.007,338.405 600.789,303.590 614.017 C 297.849 616.199,298.122 616.441,294.567 605.989 C 282.722 571.168,279.019 522.105,286.078 493.519 C 291.419 471.888,294.700 467.140,328.324 432.405 C 384.207 374.674,393.475 357.702,395.064 310.185 C 396.031 281.284,393.562 267.180,377.965 212.500 C 372.659 193.901,372.391 192.452,371.785 179.167 C 371.437 171.528,370.229 156.557,369.100 145.898 L 367.048 126.517 371.045 102.842 C 377.075 67.126,377.683 42.542,372.620 39.224 C 367.702 36.002,338.417 50.893,322.076 64.925 L 316.837 69.424 308.989 65.249 C 296.975 58.858,288.949 56.355,278.301 55.678 L 269.102 55.093 259.498 41.204 C 232.636 2.359,227.303 -3.199,221.446 1.545 M248.209 45.599 C 257.816 59.472,262.783 65.864,264.179 66.150 C 265.292 66.378,270.162 66.749,275.000 66.973 C 285.683 67.468,296.091 70.960,307.448 77.858 C 317.186 83.772,318.396 83.703,326.270 76.784 C 335.432 68.733,352.292 57.595,360.521 54.159 L 364.098 52.666 363.670 65.916 C 363.352 75.750,362.221 85.136,359.281 102.315 L 355.320 125.463 357.778 149.537 C 359.130 162.778,360.224 177.987,360.210 183.334 C 360.187 192.496,360.508 194.179,365.773 212.501 C 381.155 266.025,383.410 277.645,383.381 303.241 C 383.327 351.005,374.714 367.813,323.121 420.833 C 293.636 451.134,283.871 462.888,280.540 472.085 C 268.250 506.021,267.352 537.005,277.254 585.420 C 280.675 602.145,287.916 624.744,290.455 626.620 C 298.629 632.662,328.031 616.889,348.076 595.709 C 372.742 569.646,383.738 535.037,370.985 523.611 C 361.365 514.993,362.387 496.921,372.673 493.764 C 394.269 487.136,393.838 550.251,371.987 593.981 C 344.450 649.094,305.518 666.949,197.222 674.133 C 150.542 677.230,82.053 669.459,59.079 658.459 C 23.616 641.480,8.332 590.277,12.884 503.704 C 14.253 477.688,15.515 469.003,22.842 435.185 C 30.619 399.289,53.191 348.472,71.101 326.537 C 92.945 299.785,152.700 273.050,191.398 272.714 C 209.846 272.555,208.802 273.002,214.922 262.628 C 220.976 252.365,230.204 240.596,243.913 225.652 C 250.826 218.117,256.481 211.231,256.481 210.349 C 256.481 207.423,253.755 204.721,250.205 204.129 C 236.702 201.875,209.090 190.271,200.945 183.427 L 197.724 180.720 202.523 175.646 C 211.244 166.425,209.138 158.716,198.827 162.119 C 195.462 163.229,194.833 163.158,191.600 161.297 C 189.652 160.176,187.352 159.259,186.487 159.259 C 183.733 159.259,185.174 138.902,188.699 128.010 C 194.283 110.756,207.140 92.149,220.370 82.178 C 223.681 79.683,227.118 77.051,228.009 76.330 C 229.918 74.785,230.152 70.099,228.407 68.353 C 227.397 67.342,227.388 63.828,228.357 48.148 C 229.002 37.708,229.568 27.083,229.613 24.537 L 229.696 19.907 231.981 22.685 C 233.237 24.213,240.540 34.524,248.209 45.599 M257.713 133.196 C 247.530 136.715,237.693 146.691,239.459 151.710 C 240.856 155.684,244.153 156.170,251.039 153.415 C 264.306 148.107,270.936 148.208,278.044 153.827 C 287.937 161.647,294.144 158.010,290.284 146.656 C 285.485 132.538,273.705 127.670,257.713 133.196 M212.863 478.009 C 199.152 489.510,204.240 572.825,221.278 615.807 C 230.309 638.590,233.192 641.180,249.537 641.194 C 271.164 641.213,272.014 639.742,262.104 619.450 C 244.263 582.919,233.840 540.007,234.418 505.470 C 234.772 484.345,235.306 485.737,224.841 480.475 C 217.147 476.607,215.050 476.175,212.863 478.009 M222.909 507.740 C 221.871 539.034,233.557 588.110,249.952 621.311 C 254.799 631.127,254.846 630.924,247.926 630.141 C 240.885 629.344,240.458 629.008,236.499 621.147 C 223.005 594.352,212.456 529.480,217.158 502.205 C 219.159 490.598,219.185 490.536,221.487 491.769 C 223.338 492.759,223.387 493.314,222.909 507.740 M173.975 583.333 C 171.628 584.705,160.185 604.128,160.185 606.740 C 160.185 612.888,185.028 634.259,192.174 634.259 C 198.971 634.259,199.289 628.187,193.106 616.486 C 189.762 610.159,187.082 603.357,185.152 596.296 C 181.652 583.493,178.988 580.403,173.975 583.333 M176.754 608.333 L 177.835 611.574 175.361 609.108 C 173.697 607.448,173.092 606.112,173.512 605.018 C 174.286 602.999,175.331 604.067,176.754 608.333 " stroke="none" fill="#000000" fill-rule="evenodd"></path></g></svg>