<svg id="svg" xmlns="http://www.w3.org/2000/svg" xmlns:xlink="http://www.w3.org/1999/xlink" width="400" height="390.2439024390244" viewBox="0, 0, 400,390.2439024390244" version="1.1"><g id="svgg"><path id="path0" d="M262.732 0.275 C 262.249 0.368,261.854 0.608,261.854 0.808 C 261.854 1.007,261.507 1.171,261.084 1.171 C 260.219 1.171,255.876 3.117,255.675 3.594 C 255.603 3.764,255.208 3.902,254.797 3.902 C 254.385 3.902,254.049 4.041,254.049 4.210 C 254.049 4.380,253.039 5.036,251.805 5.669 C 250.571 6.302,248.647 7.393,247.531 8.093 C 246.414 8.793,245.317 9.366,245.092 9.366 C 244.867 9.366,244.683 9.541,244.683 9.756 C 244.683 9.971,244.420 10.146,244.098 10.146 C 243.776 10.146,243.508 10.278,243.504 10.439 C 243.499 10.600,242.709 11.259,241.748 11.902 C 240.788 12.546,240.001 13.205,240.001 13.366 C 240.000 13.527,239.816 13.659,239.592 13.659 C 239.368 13.659,238.745 14.098,238.208 14.634 C 237.672 15.171,237.109 15.610,236.958 15.611 C 236.807 15.611,236.332 16.138,235.902 16.780 C 235.473 17.423,234.919 17.949,234.671 17.950 C 234.423 17.951,232.771 19.356,231.000 21.073 C 229.229 22.790,227.659 24.195,227.510 24.195 C 226.472 24.195,219.317 32.164,219.317 33.320 C 219.317 33.631,219.185 33.945,219.024 34.016 C 218.618 34.197,217.062 37.429,216.754 38.735 C 216.614 39.328,216.343 39.909,216.152 40.027 C 215.961 40.145,215.805 40.582,215.805 40.999 C 215.805 41.415,215.629 41.756,215.415 41.756 C 215.200 41.756,215.024 42.107,215.024 42.537 C 215.024 42.966,214.849 43.317,214.634 43.317 C 214.420 43.317,214.244 43.576,214.244 43.892 C 214.244 44.471,213.310 46.649,210.880 51.736 C 210.154 53.255,209.561 54.704,209.561 54.956 C 209.561 55.208,209.385 55.415,209.171 55.415 C 208.956 55.415,208.780 55.723,208.780 56.099 C 208.780 56.475,208.166 58.050,207.415 59.599 C 206.663 61.147,206.049 62.595,206.049 62.817 C 206.049 63.038,205.873 63.220,205.659 63.220 C 205.444 63.220,205.268 63.561,205.268 63.979 C 205.268 64.397,204.829 65.565,204.293 66.574 C 203.756 67.583,203.317 68.822,203.317 69.326 C 203.317 69.831,203.141 70.244,202.927 70.244 C 202.712 70.244,202.537 70.507,202.537 70.829 C 202.537 71.151,202.361 71.415,202.146 71.415 C 201.932 71.415,201.756 71.669,201.756 71.979 C 201.756 72.290,201.317 73.370,200.780 74.379 C 200.244 75.388,199.805 76.539,199.805 76.936 C 199.805 77.333,199.629 77.659,199.415 77.659 C 199.200 77.659,199.020 77.966,199.016 78.341 C 199.011 78.717,198.664 79.463,198.244 80.000 C 197.824 80.537,197.477 81.360,197.472 81.831 C 197.467 82.301,197.307 82.782,197.116 82.900 C 196.926 83.018,196.653 83.576,196.512 84.141 C 196.102 85.773,193.620 87.415,191.562 87.415 C 191.159 87.415,190.829 87.590,190.829 87.805 C 190.829 88.020,190.493 88.195,190.081 88.195 C 189.670 88.195,189.275 88.327,189.203 88.488 C 189.036 88.864,185.383 90.151,184.488 90.148 C 184.112 90.147,183.805 90.284,183.805 90.451 C 183.805 90.619,183.015 90.990,182.049 91.275 C 181.083 91.560,180.293 91.950,180.293 92.141 C 180.293 92.332,179.898 92.488,179.415 92.488 C 178.500 92.488,175.071 93.677,174.587 94.161 C 174.434 94.314,173.899 94.439,173.398 94.439 C 172.898 94.439,172.488 94.615,172.488 94.829 C 172.488 95.044,172.224 95.220,171.902 95.220 C 171.580 95.220,171.317 95.371,171.317 95.557 C 171.317 95.742,170.531 96.002,169.570 96.133 C 168.608 96.265,167.467 96.552,167.033 96.772 C 166.599 96.991,165.895 97.346,165.469 97.561 C 165.042 97.776,164.428 97.951,164.103 97.951 C 163.778 97.951,163.512 98.127,163.512 98.341 C 163.512 98.556,163.102 98.732,162.602 98.732 C 162.101 98.732,161.559 98.863,161.398 99.024 C 161.237 99.185,160.989 99.327,160.846 99.339 C 159.749 99.432,158.049 100.030,158.049 100.324 C 158.049 100.521,157.708 100.683,157.291 100.683 C 156.875 100.683,156.425 100.859,156.293 101.073 C 156.160 101.288,155.711 101.463,155.294 101.463 C 154.877 101.463,154.537 101.639,154.537 101.854 C 154.537 102.068,154.165 102.244,153.711 102.244 C 152.691 102.244,148.926 103.502,148.748 103.902 C 148.676 104.063,148.367 104.195,148.060 104.195 C 147.753 104.195,147.109 104.398,146.629 104.646 C 145.274 105.346,144.762 105.542,142.146 106.360 C 140.805 106.779,139.707 107.254,139.707 107.415 C 139.707 107.576,139.268 107.707,138.732 107.707 C 138.195 107.707,137.756 107.883,137.756 108.098 C 137.756 108.312,137.425 108.488,137.020 108.488 C 136.615 108.488,135.781 108.750,135.167 109.071 C 134.552 109.391,133.654 109.655,133.171 109.656 C 132.688 109.657,132.293 109.834,132.293 110.049 C 132.293 110.263,131.864 110.439,131.340 110.439 C 130.816 110.439,130.279 110.615,130.146 110.829 C 130.014 111.044,129.476 111.220,128.953 111.220 C 128.429 111.220,128.000 111.352,128.000 111.514 C 128.000 112.648,119.980 113.379,115.122 112.688 C 114.371 112.582,110.463 112.356,106.439 112.187 C 102.415 112.018,99.122 111.731,99.122 111.550 C 99.122 111.368,97.113 111.220,94.657 111.220 C 92.102 111.220,90.089 111.053,89.951 110.829 C 89.815 110.610,87.939 110.439,85.659 110.439 C 83.430 110.439,81.512 110.286,81.397 110.099 C 81.281 109.911,79.478 109.726,77.389 109.687 C 75.301 109.648,72.444 109.481,71.040 109.314 C 69.636 109.148,67.390 109.026,66.049 109.043 C 64.708 109.059,63.610 108.941,63.610 108.780 C 63.610 108.620,61.601 108.488,59.145 108.488 C 56.589 108.488,54.577 108.321,54.439 108.098 C 54.302 107.877,52.380 107.707,50.006 107.707 C 47.701 107.707,45.648 107.543,45.444 107.342 C 45.240 107.140,43.229 106.895,40.976 106.795 C 38.722 106.696,36.263 106.533,35.512 106.433 C 34.761 106.334,30.678 106.114,26.439 105.944 C 22.200 105.775,18.732 105.487,18.732 105.306 C 18.732 105.124,16.624 104.976,14.049 104.976 C 11.187 104.976,9.366 104.824,9.366 104.585 C 9.366 104.353,7.870 104.195,5.659 104.195 C 3.447 104.195,1.951 104.353,1.951 104.585 C 1.951 104.800,1.620 104.976,1.216 104.976 C 0.302 104.976,0.012 105.988,0.005 109.201 L 0.000 111.669 9.073 120.807 C 14.063 125.833,18.341 130.166,18.578 130.436 C 18.816 130.706,19.430 131.293,19.944 131.742 C 20.458 132.190,21.245 132.980,21.693 133.498 C 22.141 134.015,22.931 134.806,23.449 135.254 C 23.967 135.702,24.779 136.492,25.255 137.010 C 25.731 137.528,26.521 138.344,27.011 138.823 C 27.501 139.303,28.288 140.093,28.760 140.579 C 29.231 141.066,29.846 141.664,30.126 141.909 C 30.405 142.154,31.186 142.944,31.860 143.665 C 32.534 144.386,34.114 145.985,35.372 147.218 C 36.629 148.452,38.048 149.856,38.524 150.340 C 39.000 150.824,39.590 151.420,39.835 151.665 C 40.079 151.910,40.866 152.700,41.582 153.421 C 42.298 154.142,43.113 154.926,43.393 155.164 C 43.673 155.401,44.292 156.016,44.767 156.529 C 45.243 157.043,46.033 157.856,46.523 158.335 C 47.014 158.815,47.807 159.605,48.287 160.091 C 48.766 160.578,49.556 161.368,50.043 161.848 C 50.529 162.327,51.278 163.124,51.707 163.618 C 54.347 166.655,55.805 168.122,55.805 167.738 C 55.805 167.496,56.310 167.995,56.927 168.847 C 58.409 170.892,69.743 182.225,70.025 181.943 C 70.145 181.822,70.244 181.929,70.244 182.181 C 70.244 182.432,72.088 184.484,74.341 186.741 C 78.390 190.794,78.875 191.620,78.061 193.078 C 77.492 194.099,76.488 197.390,76.488 198.235 C 76.488 198.644,76.312 199.087,76.098 199.220 C 75.883 199.352,75.707 199.889,75.707 200.413 C 75.707 200.937,75.532 201.366,75.317 201.366 C 75.102 201.366,74.927 201.805,74.927 202.341 C 74.927 202.878,74.771 203.317,74.581 203.317 C 74.391 203.317,74.151 203.800,74.049 204.390 C 73.735 206.210,72.901 209.331,72.539 210.043 C 72.350 210.416,72.195 211.075,72.195 211.507 C 72.195 211.939,72.020 212.293,71.805 212.293 C 71.590 212.293,71.415 212.721,71.415 213.245 C 71.415 213.769,71.239 214.306,71.024 214.439 C 70.810 214.572,70.634 215.099,70.634 215.610 C 70.634 216.121,70.456 216.650,70.238 216.784 C 70.019 216.919,69.934 217.181,70.049 217.366 C 70.163 217.551,70.078 217.812,69.860 217.947 C 69.642 218.082,69.463 218.709,69.463 219.340 C 69.463 219.971,69.288 220.488,69.073 220.488 C 68.859 220.488,68.683 221.015,68.683 221.659 C 68.683 222.302,68.507 222.829,68.293 222.829 C 68.078 222.829,67.902 223.258,67.902 223.782 C 67.902 224.306,67.732 224.840,67.524 224.969 C 67.315 225.097,67.029 226.074,66.888 227.138 C 66.747 228.202,66.478 229.073,66.291 229.073 C 66.104 229.073,65.951 229.477,65.951 229.971 C 65.951 230.464,65.806 231.035,65.629 231.239 C 65.452 231.443,65.075 232.400,64.792 233.366 C 64.509 234.332,64.040 235.874,63.749 236.794 C 63.458 237.714,63.220 238.811,63.220 239.233 C 63.220 239.655,63.035 240.000,62.810 240.000 C 62.351 240.000,62.505 247.430,63.177 257.719 C 63.675 265.343,64.065 267.707,64.826 267.707 C 65.016 267.707,65.171 267.971,65.171 268.293 C 65.171 268.615,65.346 268.878,65.561 268.878 C 65.776 268.878,65.951 269.141,65.951 269.463 C 65.951 269.785,66.115 270.049,66.315 270.049 C 66.515 270.049,66.786 270.387,66.917 270.800 C 67.048 271.213,67.851 272.266,68.700 273.142 C 69.549 274.017,70.244 274.881,70.244 275.063 C 70.244 275.244,70.551 275.756,70.927 276.200 C 72.323 277.850,72.821 278.476,73.953 280.000 C 74.591 280.859,75.423 281.845,75.801 282.192 C 76.179 282.539,76.488 282.980,76.488 283.172 C 76.488 283.363,76.927 283.994,77.463 284.572 C 78.000 285.151,78.439 285.789,78.439 285.989 C 78.439 286.575,82.351 290.341,82.959 290.341 C 83.263 290.341,83.512 290.505,83.512 290.705 C 83.512 290.906,83.907 291.194,84.390 291.347 C 84.873 291.499,85.552 291.950,85.899 292.349 C 86.247 292.747,86.729 293.073,86.973 293.073 C 87.216 293.073,87.415 293.237,87.415 293.437 C 87.415 293.794,88.591 294.325,88.977 294.142 C 89.084 294.091,89.718 294.620,90.385 295.317 C 91.051 296.015,91.797 296.585,92.042 296.585 C 92.287 296.585,92.488 296.749,92.488 296.949 C 92.488 297.149,92.883 297.438,93.366 297.591 C 93.849 297.743,94.528 298.194,94.875 298.592 C 95.222 298.991,95.629 299.317,95.779 299.317 C 95.929 299.317,96.628 299.756,97.331 300.293 C 98.035 300.829,98.771 301.268,98.967 301.268 C 99.164 301.268,99.544 301.620,99.812 302.049 C 100.080 302.478,100.561 302.829,100.881 302.829 C 101.201 302.829,101.463 303.002,101.463 303.212 C 101.463 303.423,101.902 303.705,102.439 303.840 C 102.976 303.974,103.415 304.212,103.415 304.367 C 103.415 304.522,103.898 304.898,104.488 305.202 C 105.078 305.507,105.964 306.151,106.457 306.634 C 106.949 307.117,107.569 307.512,107.834 307.512 C 108.099 307.512,108.569 307.863,108.878 308.293 C 109.187 308.722,109.665 309.073,109.940 309.073 C 110.214 309.073,110.439 309.209,110.439 309.375 C 110.439 309.540,111.054 310.007,111.805 310.412 C 112.556 310.816,113.171 311.295,113.171 311.476 C 113.171 311.657,113.483 311.805,113.865 311.805 C 114.247 311.805,114.813 312.156,115.122 312.585 C 115.431 313.015,115.882 313.366,116.124 313.366 C 116.366 313.366,116.930 313.684,117.379 314.073 C 118.992 315.472,122.796 318.049,123.248 318.049 C 123.406 318.049,123.788 318.400,124.098 318.829 C 124.407 319.259,124.843 319.610,125.066 319.610 C 125.289 319.610,125.945 320.049,126.524 320.585 C 127.102 321.122,127.732 321.561,127.922 321.561 C 128.113 321.561,128.573 321.896,128.944 322.306 C 129.315 322.716,130.045 323.159,130.565 323.289 C 131.086 323.420,131.512 323.699,131.512 323.910 C 131.512 324.120,131.776 324.293,132.098 324.293 C 132.420 324.293,132.683 324.424,132.684 324.585 C 132.684 324.746,133.474 325.377,134.440 325.987 C 135.405 326.597,136.195 327.256,136.195 327.450 C 136.195 327.645,136.460 327.805,136.784 327.805 C 137.108 327.805,137.919 328.326,138.586 328.964 C 139.253 329.601,140.129 330.228,140.533 330.356 C 140.938 330.484,141.268 330.753,141.268 330.953 C 141.268 331.153,141.452 331.317,141.676 331.317 C 141.900 331.317,142.556 331.756,143.135 332.293 C 143.714 332.829,144.407 333.268,144.676 333.268 C 144.944 333.268,145.383 333.620,145.652 334.049 C 145.920 334.478,146.368 334.829,146.647 334.829 C 146.927 334.829,147.629 335.268,148.208 335.805 C 148.787 336.341,149.406 336.780,149.585 336.780 C 149.763 336.780,150.131 337.000,150.402 337.268 C 150.674 337.537,151.383 338.107,151.979 338.537 C 152.575 338.966,153.294 339.537,153.576 339.805 C 153.859 340.073,154.198 340.293,154.330 340.293 C 154.462 340.293,154.946 340.644,155.407 341.073 C 155.868 341.502,156.475 341.854,156.757 341.854 C 157.038 341.854,157.268 342.017,157.268 342.218 C 157.268 342.418,157.649 342.702,158.113 342.850 C 158.578 342.997,159.334 343.492,159.794 343.949 C 160.253 344.406,161.277 345.220,162.068 345.756 L 163.507 346.732 163.510 350.146 C 163.511 352.164,163.353 353.561,163.122 353.561 C 162.907 353.561,162.732 353.912,162.732 354.341 C 162.732 354.771,162.539 355.122,162.304 355.122 C 162.069 355.122,161.367 355.485,160.743 355.929 C 160.120 356.373,159.610 356.638,159.610 356.518 C 159.610 356.325,158.967 356.793,157.508 358.049 C 157.259 358.263,156.797 358.497,156.482 358.568 C 156.167 358.639,155.820 358.835,155.711 359.003 C 155.602 359.172,155.117 359.433,154.634 359.583 C 154.151 359.734,153.756 360.109,153.756 360.417 C 153.756 360.724,153.580 360.976,153.366 360.976 C 153.151 360.976,152.976 361.224,152.976 361.528 C 152.976 361.833,152.766 362.151,152.510 362.236 C 151.934 362.428,151.876 366.384,152.444 366.760 C 152.663 366.905,153.091 367.595,153.395 368.293 C 153.698 368.990,154.079 369.561,154.242 369.561 C 154.404 369.561,154.537 369.891,154.537 370.294 C 154.537 370.697,154.800 371.245,155.122 371.512 C 155.444 371.779,155.707 372.240,155.707 372.536 C 155.707 372.831,155.883 373.073,156.098 373.073 C 156.312 373.073,156.488 373.410,156.488 373.821 C 156.488 374.233,156.620 374.628,156.780 374.699 C 156.941 374.771,157.564 375.486,158.164 376.290 C 158.768 377.098,159.726 377.856,160.310 377.987 C 163.468 378.698,166.717 379.735,168.287 380.533 C 168.660 380.723,169.494 380.878,170.141 380.878 C 170.788 380.878,171.317 381.037,171.317 381.232 C 171.317 381.426,172.195 381.706,173.268 381.854 C 174.341 382.001,175.220 382.281,175.220 382.476 C 175.220 382.670,175.736 382.829,176.367 382.829 C 176.998 382.829,177.623 383.005,177.756 383.220 C 177.889 383.434,178.428 383.610,178.955 383.610 C 179.876 383.610,180.230 383.733,182.133 384.715 C 182.609 384.960,183.970 385.275,185.157 385.415 C 186.345 385.554,187.317 385.820,187.317 386.005 C 187.317 386.190,187.756 386.341,188.293 386.341 C 188.829 386.341,189.268 386.517,189.268 386.732 C 189.268 386.946,189.795 387.122,190.439 387.122 C 191.083 387.122,191.610 387.254,191.611 387.415 C 191.611 387.576,193.060 388.045,194.830 388.458 C 196.600 388.870,198.174 389.397,198.328 389.628 C 198.715 390.213,211.439 390.205,211.819 389.620 C 211.972 389.384,213.126 389.073,214.383 388.929 C 215.639 388.785,216.989 388.495,217.381 388.284 C 217.774 388.074,218.535 387.902,219.073 387.902 C 219.611 387.902,220.160 387.727,220.293 387.512 C 220.425 387.298,221.314 387.122,222.267 387.122 C 223.220 387.122,224.000 386.946,224.000 386.732 C 224.000 386.517,224.702 386.341,225.561 386.341 C 226.420 386.341,227.122 386.189,227.122 386.002 C 227.122 385.815,228.220 385.538,229.561 385.386 C 230.902 385.234,232.966 384.837,234.146 384.503 C 235.327 384.170,236.951 383.814,237.756 383.712 C 238.561 383.611,239.220 383.371,239.220 383.179 C 239.220 382.986,239.893 382.829,240.715 382.829 C 241.538 382.829,242.341 382.698,242.500 382.537 C 242.756 382.277,245.933 381.652,250.246 381.013 C 251.053 380.893,251.809 380.639,251.928 380.447 C 252.047 380.255,252.758 380.098,253.509 380.098 C 254.321 380.098,254.777 379.939,254.634 379.707 C 254.489 379.473,254.993 379.317,255.895 379.317 C 256.721 379.317,258.423 379.050,259.678 378.723 C 260.932 378.396,262.374 378.095,262.882 378.053 C 263.389 378.010,263.805 377.857,263.805 377.712 C 263.805 377.567,264.551 377.337,265.463 377.202 C 269.505 376.604,270.049 376.487,270.049 376.211 C 270.049 376.050,271.189 375.811,272.583 375.681 C 273.977 375.551,275.458 375.262,275.875 375.039 C 276.291 374.816,277.258 374.634,278.023 374.634 C 278.788 374.634,279.415 374.459,279.415 374.244 C 279.415 374.029,280.117 373.854,280.976 373.854 C 281.834 373.854,282.537 373.678,282.537 373.463 C 282.537 373.249,283.239 373.073,284.098 373.073 C 284.956 373.073,285.659 372.918,285.659 372.729 C 285.659 372.539,286.976 372.261,288.585 372.110 C 290.195 371.959,291.512 371.675,291.512 371.479 C 291.512 371.283,292.215 371.122,293.073 371.122 C 293.932 371.122,294.634 370.946,294.634 370.732 C 294.634 370.517,295.322 370.341,296.163 370.341 C 297.003 370.341,297.750 370.188,297.821 370.001 C 297.893 369.814,298.829 369.558,299.902 369.434 C 300.976 369.310,302.293 369.090,302.829 368.947 C 303.366 368.804,304.463 368.601,305.268 368.497 C 306.073 368.393,306.732 368.151,306.732 367.959 C 306.732 367.767,307.522 367.610,308.488 367.610 C 309.454 367.610,310.244 367.434,310.244 367.220 C 310.244 367.005,310.829 366.829,311.545 366.829 C 312.260 366.829,312.976 366.698,313.134 366.537 C 313.390 366.277,316.562 365.653,320.878 365.013 C 321.683 364.894,322.341 364.657,322.341 364.488 C 322.341 364.318,323.044 364.073,323.902 363.943 C 324.761 363.814,326.166 363.601,327.024 363.471 C 327.883 363.341,328.585 363.103,328.585 362.941 C 328.585 362.780,329.595 362.534,330.829 362.395 C 333.865 362.053,334.371 361.954,334.688 361.637 C 334.837 361.488,335.447 361.366,336.042 361.366 C 336.637 361.366,337.233 361.190,337.366 360.976 C 337.499 360.761,338.201 360.585,338.927 360.585 C 339.653 360.585,340.341 360.433,340.456 360.246 C 340.571 360.060,341.895 359.786,343.397 359.638 C 344.899 359.490,346.231 359.204,346.356 359.002 C 346.480 358.800,347.264 358.634,348.098 358.634 C 348.931 358.634,349.721 358.459,349.854 358.244 C 349.986 358.029,350.699 357.854,351.438 357.854 C 352.176 357.854,352.780 357.678,352.780 357.463 C 352.780 357.249,353.454 357.073,354.276 357.073 C 355.099 357.073,355.902 356.941,356.061 356.780 C 356.317 356.521,359.489 355.897,363.805 355.257 C 364.610 355.138,365.268 354.883,365.268 354.691 C 365.268 354.499,365.971 354.341,366.829 354.341 C 367.688 354.341,368.390 354.166,368.390 353.951 C 368.390 353.737,369.093 353.561,369.951 353.561 C 370.810 353.561,371.512 353.403,371.512 353.210 C 371.512 353.017,372.785 352.733,374.341 352.578 C 375.898 352.423,377.263 352.152,377.376 351.974 C 377.489 351.797,378.323 351.608,379.230 351.554 C 380.136 351.501,380.878 351.316,380.878 351.143 C 380.878 350.971,381.493 350.829,382.244 350.829 C 382.995 350.829,383.610 350.654,383.610 350.439 C 383.610 350.224,384.041 350.049,384.568 350.049 C 385.094 350.049,385.965 349.610,386.501 349.073 C 387.038 348.537,387.591 348.098,387.730 348.098 C 387.945 348.098,389.781 346.373,394.251 341.972 C 395.874 340.374,396.878 338.699,396.878 337.589 C 396.878 337.170,397.017 336.741,397.187 336.636 C 397.356 336.531,397.539 335.793,397.593 334.996 C 397.647 334.200,397.861 333.229,398.069 332.841 C 398.277 332.452,398.560 331.028,398.698 329.677 C 398.836 328.325,399.128 327.102,399.347 326.959 C 400.022 326.519,399.899 313.951,399.215 313.366 C 398.981 313.166,398.182 309.323,397.795 306.537 C 397.676 305.678,397.421 304.809,397.228 304.605 C 397.036 304.401,396.878 303.655,396.878 302.946 C 396.878 302.238,396.702 301.659,396.488 301.659 C 396.273 301.659,396.098 301.073,396.098 300.358 C 396.098 299.642,395.966 298.927,395.805 298.768 C 395.644 298.609,395.304 297.219,395.051 295.679 C 394.797 294.138,394.386 292.088,394.138 291.122 C 393.889 290.156,393.597 288.620,393.487 287.707 C 393.377 286.795,393.129 286.049,392.936 286.049 C 392.743 286.049,392.585 285.434,392.585 284.683 C 392.585 283.932,392.410 283.317,392.195 283.317 C 391.980 283.317,391.805 282.739,391.805 282.033 C 391.805 281.327,391.541 279.738,391.220 278.502 C 390.898 277.266,390.634 275.824,390.634 275.298 C 390.634 274.772,390.459 274.341,390.244 274.341 C 390.029 274.341,389.854 273.724,389.854 272.970 C 389.854 272.216,389.698 271.294,389.507 270.922 C 389.316 270.549,388.948 269.190,388.688 267.902 C 388.428 266.615,388.046 264.771,387.839 263.805 C 387.631 262.839,387.367 261.390,387.251 260.585 C 387.135 259.780,386.883 259.122,386.691 259.122 C 386.499 259.122,386.341 258.507,386.341 257.756 C 386.341 257.005,386.191 256.390,386.007 256.390 C 385.823 256.390,385.564 255.357,385.432 254.095 C 385.162 251.508,384.470 248.339,383.954 247.322 C 383.765 246.950,383.610 246.126,383.610 245.492 C 383.610 244.858,383.434 244.230,383.220 244.098 C 383.005 243.965,382.829 243.164,382.829 242.318 C 382.829 241.473,382.679 240.780,382.495 240.780 C 382.311 240.780,382.046 239.771,381.907 238.537 C 381.566 235.501,381.466 234.995,381.150 234.678 C 381.000 234.529,380.878 233.821,380.878 233.106 C 380.878 232.390,380.702 231.805,380.488 231.805 C 380.273 231.805,380.098 231.113,380.098 230.267 C 380.098 229.421,379.922 228.620,379.707 228.488 C 379.493 228.355,379.317 227.725,379.317 227.086 C 379.317 226.448,379.054 225.296,378.732 224.525 C 378.410 223.755,378.146 222.794,378.146 222.391 C 378.146 221.988,377.971 221.659,377.756 221.659 C 377.541 221.659,377.366 221.132,377.366 220.488 C 377.366 219.844,377.190 219.317,376.976 219.317 C 376.761 219.317,376.585 218.878,376.585 218.341 C 376.585 217.805,376.430 217.366,376.240 217.366 C 376.050 217.366,375.774 216.400,375.627 215.220 C 375.479 214.039,375.195 213.073,374.996 213.073 C 374.797 213.073,374.634 212.546,374.634 211.902 C 374.634 211.259,374.459 210.732,374.244 210.732 C 374.029 210.732,373.854 210.293,373.854 209.756 C 373.854 209.220,373.678 208.780,373.463 208.780 C 373.249 208.780,373.073 208.341,373.073 207.805 C 373.073 207.268,372.920 206.829,372.733 206.829 C 372.546 206.829,372.280 205.995,372.142 204.976 C 371.881 203.054,371.075 200.408,370.609 199.942 C 370.462 199.795,370.341 199.294,370.341 198.829 C 370.341 198.364,370.228 197.870,370.089 197.731 C 369.715 197.357,368.418 193.473,368.403 192.683 C 368.396 192.307,368.215 192.000,368.000 192.000 C 367.785 192.000,367.610 191.561,367.610 191.024 C 367.610 190.488,367.434 190.049,367.220 190.049 C 367.005 190.049,366.829 189.532,366.829 188.901 C 366.829 188.270,366.654 187.645,366.439 187.512 C 366.188 187.357,366.049 180.601,366.049 168.524 C 366.049 149.313,365.946 147.894,364.477 146.732 C 364.341 146.624,363.982 145.966,363.678 145.268 C 363.375 144.571,363.013 144.000,362.875 144.000 C 362.737 144.000,362.508 143.385,362.367 142.634 C 362.226 141.883,361.976 141.268,361.811 141.268 C 361.646 141.268,361.270 140.654,360.976 139.902 C 360.681 139.151,360.297 138.537,360.122 138.537 C 359.948 138.537,359.805 138.276,359.805 137.957 C 359.805 137.638,359.164 136.189,358.380 134.737 C 357.597 133.285,356.524 131.220,355.996 130.146 C 355.468 129.073,354.880 128.137,354.689 128.065 C 354.498 127.993,354.341 127.598,354.341 127.187 C 354.341 126.776,354.166 126.439,353.951 126.439 C 353.737 126.439,353.561 126.176,353.561 125.854 C 353.561 125.532,353.385 125.268,353.171 125.268 C 352.956 125.268,352.780 125.012,352.780 124.699 C 352.780 124.385,352.076 123.376,351.215 122.455 C 348.629 119.688,348.098 119.064,348.098 118.797 C 348.098 118.657,346.956 117.423,345.561 116.055 C 344.166 114.687,343.024 113.416,343.024 113.231 C 343.024 113.045,342.015 111.847,340.780 110.568 C 339.546 109.289,338.017 107.551,337.382 106.706 C 336.748 105.862,335.781 104.732,335.235 104.195 C 334.688 103.659,333.778 102.605,333.212 101.854 C 332.645 101.102,331.368 99.610,330.374 98.537 C 329.380 97.463,328.352 96.102,328.090 95.512 C 327.829 94.922,327.501 94.439,327.362 94.439 C 327.223 94.439,326.999 94.000,326.864 93.463 C 326.729 92.927,326.468 92.488,326.284 92.488 C 326.099 92.488,325.730 91.961,325.463 91.317 C 325.197 90.673,324.824 90.146,324.636 90.146 C 324.447 90.146,324.293 89.883,324.293 89.561 C 324.293 89.239,324.134 88.976,323.941 88.976 C 323.747 88.976,323.404 88.446,323.179 87.800 C 322.953 87.153,322.497 86.520,322.165 86.392 C 321.833 86.265,321.561 85.913,321.561 85.611 C 321.561 85.310,321.398 84.758,321.199 84.385 C 320.999 84.012,320.516 82.874,320.125 81.855 C 319.734 80.836,319.283 80.002,319.122 80.001 C 318.961 80.001,318.829 79.659,318.829 79.243 C 318.829 78.826,318.654 78.377,318.439 78.244 C 318.224 78.111,318.049 77.662,318.049 77.245 C 318.049 76.829,317.893 76.488,317.702 76.488 C 317.511 76.488,317.240 75.873,317.099 75.122 C 316.958 74.371,316.675 73.756,316.470 73.756 C 316.265 73.756,316.098 73.317,316.098 72.780 C 316.098 72.244,315.922 71.805,315.707 71.805 C 315.493 71.805,315.317 71.454,315.317 71.024 C 315.317 70.595,315.141 70.244,314.927 70.244 C 314.712 70.244,314.537 69.893,314.537 69.463 C 314.537 69.034,314.383 68.683,314.195 68.683 C 314.007 68.683,313.740 68.114,313.601 67.418 C 313.279 65.812,312.484 64.000,312.100 64.000 C 311.938 64.000,311.805 63.649,311.805 63.220 C 311.805 62.790,311.629 62.439,311.415 62.439 C 311.200 62.439,311.019 62.132,311.012 61.756 C 311.005 61.380,310.742 60.732,310.427 60.316 C 310.111 59.899,309.854 59.153,309.854 58.657 C 309.854 58.162,309.678 57.756,309.463 57.756 C 309.249 57.756,309.073 57.405,309.073 56.976 C 309.073 56.546,308.898 56.195,308.683 56.195 C 308.468 56.195,308.293 55.844,308.293 55.415 C 308.293 54.985,308.117 54.634,307.902 54.634 C 307.688 54.634,307.512 54.447,307.512 54.219 C 307.512 53.991,307.102 52.893,306.600 51.780 C 306.098 50.667,305.440 49.185,305.138 48.488 C 304.837 47.790,304.457 47.220,304.295 47.220 C 304.133 47.220,304.000 46.957,304.000 46.637 C 304.000 45.824,302.709 42.927,302.347 42.927 C 302.183 42.927,302.049 42.576,302.049 42.146 C 302.049 41.717,301.873 41.366,301.659 41.366 C 301.444 41.366,301.267 41.059,301.266 40.683 C 301.265 40.307,301.001 39.497,300.681 38.882 C 300.360 38.267,300.098 37.521,300.098 37.224 C 300.098 36.926,299.922 36.683,299.707 36.683 C 299.493 36.683,299.317 36.332,299.317 35.902 C 299.317 35.473,299.141 35.122,298.927 35.122 C 298.712 35.122,298.537 34.859,298.537 34.537 C 298.537 34.215,298.383 33.951,298.195 33.951 C 298.007 33.951,297.751 33.437,297.625 32.809 C 297.242 30.894,295.775 28.141,295.008 27.897 C 294.610 27.771,294.187 27.369,294.070 27.004 C 293.952 26.640,293.366 25.815,292.768 25.171 C 292.169 24.527,291.159 23.298,290.523 22.441 C 289.886 21.584,288.444 19.928,287.317 18.762 C 286.190 17.597,285.268 16.400,285.268 16.103 C 285.268 15.806,285.093 15.672,284.878 15.805 C 284.663 15.938,284.488 15.865,284.488 15.643 C 284.488 15.224,281.794 12.476,280.055 11.122 C 279.504 10.693,277.804 9.164,276.277 7.724 C 274.751 6.285,273.208 5.013,272.849 4.897 C 272.489 4.782,271.844 4.160,271.415 3.516 C 270.985 2.871,270.515 2.343,270.369 2.343 C 270.224 2.342,269.872 2.115,269.589 1.839 C 268.094 0.382,265.386 -0.236,262.732 0.275 M270.953 14.352 C 274.496 17.488,278.684 21.674,281.006 24.400 C 283.195 26.970,285.847 30.076,286.897 31.302 C 288.577 33.262,289.968 35.827,293.011 42.575 C 293.456 43.563,294.793 46.434,295.983 48.957 C 297.173 51.480,298.146 53.597,298.146 53.663 C 298.146 53.728,298.956 55.510,299.945 57.622 C 303.712 65.670,304.518 67.419,306.028 70.829 C 307.625 74.439,308.472 76.332,310.092 79.914 C 310.605 81.047,311.024 82.044,311.024 82.129 C 311.024 82.215,311.639 83.615,312.390 85.241 C 313.141 86.868,313.757 88.329,313.759 88.489 C 313.784 90.936,324.253 104.585,338.826 121.171 C 345.740 129.039,346.354 129.898,349.610 136.254 C 351.408 139.763,353.955 144.654,355.269 147.122 L 357.659 151.610 357.859 170.341 L 358.060 189.073 360.913 197.659 C 362.482 202.380,363.912 206.595,364.090 207.024 C 364.857 208.872,371.472 229.837,371.848 231.610 C 372.260 233.557,372.959 236.654,374.028 241.268 C 374.339 242.610,374.956 245.288,375.400 247.220 C 376.282 251.058,376.549 252.213,377.709 257.171 C 378.135 258.995,378.941 262.507,379.499 264.976 C 380.058 267.444,380.696 270.254,380.919 271.220 C 381.335 273.028,381.586 274.136,382.645 278.829 C 382.984 280.332,383.613 283.054,384.042 284.878 C 384.964 288.793,385.329 290.379,386.158 294.049 C 386.497 295.551,387.104 298.185,387.507 299.902 C 387.910 301.620,388.697 305.044,389.256 307.512 C 390.461 312.841,390.789 314.268,391.611 317.756 C 392.178 320.164,392.178 320.616,391.611 323.024 C 390.765 326.613,390.362 328.401,389.829 330.927 C 388.922 335.225,388.402 336.167,385.490 338.778 C 381.592 342.273,381.153 342.512,376.984 343.416 C 374.940 343.859,372.654 344.380,371.902 344.574 C 371.151 344.768,369.746 345.103,368.780 345.319 C 364.600 346.254,357.925 347.763,356.488 348.098 C 355.629 348.297,352.907 348.916,350.439 349.472 C 347.971 350.028,345.249 350.643,344.390 350.839 C 342.536 351.261,336.439 352.628,332.878 353.421 C 331.483 353.731,329.639 354.147,328.780 354.345 C 319.331 356.523,313.778 357.788,304.000 359.991 C 299.124 361.090,297.092 361.551,294.537 362.136 C 293.624 362.346,291.649 362.792,290.146 363.129 C 288.644 363.466,286.712 363.903,285.854 364.099 C 284.995 364.296,282.800 364.797,280.976 365.211 C 277.026 366.109,269.313 367.879,267.122 368.392 C 264.858 368.921,254.871 371.174,253.268 371.517 C 252.517 371.678,249.795 372.288,247.220 372.874 C 240.135 374.485,239.952 374.525,237.811 374.965 C 236.714 375.190,234.256 375.741,232.348 376.190 C 227.411 377.351,226.302 377.606,221.268 378.740 C 214.370 380.295,213.888 380.404,210.341 381.226 C 204.455 382.591,204.578 382.591,200.180 381.262 C 197.934 380.583,194.166 379.443,191.805 378.728 C 189.444 378.012,185.668 376.877,183.415 376.205 C 181.161 375.532,178.351 374.663,177.171 374.272 C 174.698 373.454,169.198 371.788,166.634 371.080 C 164.365 370.453,164.137 370.261,162.708 367.764 C 161.287 365.281,161.268 365.327,164.470 363.537 C 170.923 359.928,172.881 355.388,171.727 346.713 C 171.007 341.300,172.444 342.674,153.171 328.970 C 138.558 318.580,133.885 315.292,129.159 312.075 C 126.697 310.399,123.980 308.525,123.122 307.910 C 122.263 307.295,113.663 301.329,104.009 294.651 C 90.416 285.248,86.142 282.095,85.060 280.669 C 70.451 261.433,72.087 264.036,71.761 259.512 C 71.615 257.473,71.287 252.903,71.034 249.356 L 70.573 242.906 72.902 235.892 C 74.183 232.034,76.505 224.927,78.062 220.098 C 79.619 215.268,82.420 206.663,84.287 200.976 C 86.154 195.288,89.138 186.156,90.920 180.683 C 92.701 175.210,95.099 167.872,96.250 164.377 C 98.852 156.469,98.862 155.230,96.334 153.922 C 93.176 152.289,91.769 153.742,89.414 161.066 C 84.446 176.518,82.524 182.244,82.306 182.244 C 81.876 182.244,14.746 114.602,14.504 113.925 C 14.336 113.455,17.819 113.460,22.364 113.938 C 24.337 114.145,28.410 114.498,31.415 114.722 C 34.420 114.946,40.390 115.391,44.683 115.711 C 48.976 116.030,54.595 116.461,57.171 116.668 C 59.746 116.874,64.137 117.224,66.927 117.444 C 69.717 117.665,74.195 118.023,76.878 118.241 C 79.561 118.459,84.215 118.816,87.220 119.034 C 90.224 119.253,94.966 119.613,97.756 119.834 C 126.374 122.101,125.076 122.086,129.366 120.215 C 129.795 120.028,131.902 119.228,134.049 118.438 C 136.195 117.648,138.505 116.754,139.181 116.452 C 139.857 116.150,140.529 115.902,140.674 115.902 C 140.818 115.902,143.953 114.746,147.639 113.333 C 151.325 111.920,156.361 110.005,158.829 109.078 C 161.298 108.151,167.093 105.954,171.707 104.195 C 176.322 102.437,182.205 100.211,184.780 99.248 C 187.356 98.286,189.815 97.352,190.244 97.171 C 191.991 96.437,196.624 94.834,198.684 94.252 C 201.239 93.529,201.779 93.021,203.062 90.133 C 203.583 88.960,204.556 86.810,205.224 85.356 C 205.892 83.902,206.439 82.639,206.439 82.550 C 206.439 82.461,207.141 80.874,208.000 79.024 C 208.859 77.175,209.561 75.601,209.561 75.528 C 209.561 75.455,210.240 73.928,211.071 72.136 C 211.901 70.344,213.505 66.771,214.636 64.195 C 215.767 61.620,217.283 58.226,218.005 56.654 C 218.726 55.083,219.317 53.739,219.317 53.669 C 219.317 53.598,220.020 52.035,220.878 50.194 C 221.737 48.352,222.439 46.767,222.439 46.670 C 222.439 46.499,223.512 44.104,226.129 38.434 C 226.918 36.727,227.965 35.204,228.916 34.384 C 229.754 33.661,231.493 32.072,232.780 30.853 C 242.740 21.424,249.604 16.292,258.355 11.732 C 264.959 8.291,263.846 8.059,270.953 14.352 M229.948 44.224 C 228.617 44.963,228.076 45.991,227.545 48.780 C 227.280 50.176,226.909 52.107,226.720 53.073 C 226.531 54.039,226.095 56.410,225.750 58.341 C 225.406 60.273,224.970 62.644,224.780 63.610 C 224.591 64.576,224.153 66.946,223.806 68.878 C 223.460 70.810,222.836 74.234,222.420 76.488 C 221.466 81.656,221.105 83.613,219.903 90.146 C 219.369 93.044,218.763 96.205,218.555 97.171 C 217.214 103.391,217.957 104.738,224.718 108.339 C 227.006 109.558,229.756 111.030,230.829 111.611 C 232.991 112.781,236.822 114.827,242.146 117.657 C 244.078 118.683,246.537 120.000,247.610 120.583 C 251.045 122.448,255.342 124.755,257.951 126.136 C 259.346 126.874,262.527 128.561,265.020 129.885 C 270.241 132.659,271.093 132.772,278.509 131.670 C 283.389 130.945,282.783 131.295,293.463 123.032 C 297.434 119.961,301.557 116.792,302.625 115.992 C 308.203 111.811,309.318 109.358,306.656 107.118 C 304.389 105.211,303.943 105.421,294.244 112.966 C 290.917 115.554,287.731 118.020,287.163 118.445 C 286.596 118.871,284.752 120.285,283.066 121.586 L 280.000 123.953 275.967 124.483 L 271.934 125.013 269.528 123.790 C 268.205 123.117,265.629 121.759,263.805 120.773 C 261.980 119.787,258.644 117.998,256.390 116.797 C 254.137 115.597,251.415 114.140,250.341 113.560 C 248.263 112.435,244.941 110.658,238.634 107.297 C 236.488 106.153,233.502 104.549,232.000 103.731 C 230.498 102.914,228.522 101.862,227.610 101.395 C 226.306 100.726,225.952 100.330,225.955 99.541 C 225.959 98.681,227.141 91.540,227.672 89.171 C 227.769 88.741,228.033 87.337,228.261 86.049 C 228.714 83.479,230.405 74.309,230.995 71.220 C 231.200 70.146,231.552 68.302,231.778 67.122 C 232.208 64.871,233.095 59.965,233.789 56.000 C 234.014 54.712,234.372 52.956,234.583 52.098 C 236.036 46.206,233.657 42.165,229.948 44.224 M226.341 177.399 C 221.727 177.682,215.198 178.077,211.833 178.277 C 204.751 178.697,203.159 179.223,202.040 181.512 C 200.951 183.740,201.768 185.340,204.778 186.876 C 205.663 187.327,206.480 187.848,206.594 188.033 C 206.709 188.218,205.217 193.006,203.280 198.673 C 195.714 220.799,195.948 219.812,197.824 221.689 C 200.090 223.955,203.064 222.636,204.261 218.834 C 204.617 217.704,205.068 216.429,205.264 216.000 C 205.460 215.571,205.856 214.484,206.144 213.586 C 206.770 211.632,207.015 211.741,208.944 214.829 C 209.748 216.117,210.945 217.627,211.603 218.184 C 212.718 219.128,212.770 219.286,212.360 220.462 C 210.941 224.534,215.000 226.048,224.000 224.805 C 225.395 224.612,228.455 224.396,230.799 224.325 L 235.061 224.195 235.547 226.080 C 236.363 229.246,237.761 230.116,243.422 230.981 C 251.048 232.146,250.751 232.283,259.837 223.431 C 265.473 217.940,265.535 217.821,265.243 213.020 C 264.980 208.709,264.378 206.921,262.800 205.772 L 261.698 204.970 262.404 201.509 C 264.080 193.286,263.986 192.185,261.486 190.764 C 260.857 190.406,259.967 189.380,259.510 188.484 L 258.679 186.854 261.339 186.934 C 265.400 187.055,265.720 186.998,266.749 185.969 C 268.078 184.640,268.071 182.324,266.734 180.987 C 265.759 180.011,263.853 179.562,257.951 178.915 C 256.771 178.785,254.488 178.525,252.878 178.337 C 237.693 176.560,239.175 176.612,226.341 177.399 M230.352 185.171 C 230.233 185.709,215.750 195.082,215.024 195.090 C 213.324 195.110,212.914 194.120,213.632 191.720 C 214.003 190.479,214.516 188.585,214.772 187.512 L 215.236 185.561 221.054 185.283 C 224.253 185.131,227.147 184.928,227.484 184.832 C 228.533 184.535,230.443 184.761,230.352 185.171 M115.636 195.884 C 114.776 196.251,112.302 198.058,105.171 203.523 C 103.024 205.168,99.608 207.771,97.579 209.306 C 92.200 213.377,91.317 214.345,91.317 216.173 C 91.317 219.391,94.485 220.571,97.680 218.545 L 99.512 217.383 99.512 218.424 C 99.512 218.997,99.717 220.456,99.967 221.668 C 100.391 223.722,100.366 223.927,99.587 224.706 C 97.562 226.731,97.998 228.235,102.359 234.253 C 105.434 238.494,106.121 239.017,113.219 242.509 C 119.058 245.381,119.529 245.373,125.073 242.293 C 134.666 236.964,136.461 235.782,137.142 234.346 C 138.078 232.375,138.394 232.633,138.694 235.610 C 139.614 244.753,145.966 245.873,147.142 237.100 C 147.317 235.797,147.744 232.800,148.092 230.439 C 149.626 220.025,149.378 218.966,144.882 216.752 C 141.833 215.250,141.840 215.259,142.594 214.182 C 144.724 211.142,143.555 209.986,130.438 202.156 C 119.451 195.596,117.874 194.928,115.636 195.884 M118.829 204.361 C 118.829 204.928,116.613 207.537,112.244 212.116 L 108.911 215.610 108.894 214.141 C 108.885 213.333,108.661 212.325,108.397 211.902 C 107.801 210.948,108.013 210.724,113.366 206.665 C 117.012 203.900,118.829 203.134,118.829 204.361 M257.874 213.501 C 257.985 214.827,257.761 215.124,253.799 218.907 C 248.340 224.118,248.526 224.011,245.568 223.656 C 242.549 223.294,242.542 223.287,242.539 220.389 L 242.537 218.009 246.735 215.303 C 252.621 211.509,257.639 210.697,257.874 213.501 M182.049 255.185 C 180.578 255.817,167.386 270.236,166.112 272.604 C 164.811 275.020,166.619 277.460,169.249 276.840 C 171.388 276.336,186.927 260.335,186.927 258.637 C 186.927 256.115,184.265 254.232,182.049 255.185 M142.579 264.800 C 141.129 266.250,141.528 267.139,145.776 271.927 C 150.872 277.670,152.122 278.359,154.318 276.632 C 157.185 274.377,156.462 272.559,150.992 268.268 C 144.807 263.415,144.210 263.169,142.579 264.800 M169.387 290.747 C 167.007 292.246,153.578 303.123,153.073 303.960 C 151.699 306.241,153.527 309.463,156.194 309.463 C 157.695 309.463,158.872 308.527,167.172 300.727 L 172.108 296.089 174.542 296.332 C 175.880 296.465,177.854 296.740,178.927 296.941 C 182.483 297.609,187.869 298.583,190.244 298.986 C 191.532 299.205,193.376 299.521,194.341 299.688 C 206.372 301.770,206.170 301.798,210.484 297.484 C 214.917 293.051,213.749 291.202,207.556 292.850 C 203.259 293.994,206.115 294.202,178.341 290.717 C 171.350 289.840,170.824 289.841,169.387 290.747 " stroke="none" fill="#8ce4d3" fill-rule="evenodd"></path><path id="path1" d="M258.355 11.732 C 249.604 16.292,242.740 21.424,232.780 30.853 C 231.493 32.072,229.754 33.661,228.916 34.384 C 227.965 35.204,226.918 36.727,226.129 38.434 C 223.512 44.104,222.439 46.499,222.439 46.670 C 222.439 46.767,221.737 48.352,220.878 50.194 C 220.020 52.035,219.317 53.598,219.317 53.669 C 219.317 53.739,218.726 55.083,218.005 56.654 C 217.283 58.226,215.767 61.620,214.636 64.195 C 213.505 66.771,211.901 70.344,211.071 72.136 C 210.240 73.928,209.561 75.455,209.561 75.528 C 209.561 75.601,208.859 77.175,208.000 79.024 C 207.141 80.874,206.439 82.461,206.439 82.550 C 206.439 82.639,205.892 83.902,205.224 85.356 C 204.556 86.810,203.583 88.960,203.062 90.133 C 201.779 93.021,201.239 93.529,198.684 94.252 C 196.624 94.834,191.991 96.437,190.244 97.171 C 189.815 97.352,187.356 98.286,184.780 99.248 C 182.205 100.211,176.322 102.437,171.707 104.195 C 167.093 105.954,161.298 108.151,158.829 109.078 C 156.361 110.005,151.325 111.920,147.639 113.333 C 143.953 114.746,140.818 115.902,140.674 115.902 C 140.529 115.902,139.857 116.150,139.181 116.452 C 138.505 116.754,136.195 117.648,134.049 118.438 C 131.902 119.228,129.795 120.028,129.366 120.215 C 125.076 122.086,126.374 122.101,97.756 119.834 C 94.966 119.613,90.224 119.253,87.220 119.034 C 84.215 118.816,79.561 118.459,76.878 118.241 C 74.195 118.023,69.717 117.665,66.927 117.444 C 64.137 117.224,59.746 116.874,57.171 116.668 C 54.595 116.461,48.976 116.030,44.683 115.711 C 40.390 115.391,34.420 114.946,31.415 114.722 C 28.410 114.498,24.337 114.145,22.364 113.938 C 17.819 113.460,14.336 113.455,14.504 113.925 C 14.746 114.602,81.876 182.244,82.306 182.244 C 82.524 182.244,84.446 176.518,89.414 161.066 C 91.769 153.742,93.176 152.289,96.334 153.922 C 98.862 155.230,98.852 156.469,96.250 164.377 C 95.099 167.872,92.701 175.210,90.920 180.683 C 89.138 186.156,86.154 195.288,84.287 200.976 C 82.420 206.663,79.619 215.268,78.062 220.098 C 76.505 224.927,74.183 232.034,72.902 235.892 L 70.573 242.906 71.034 249.356 C 71.287 252.903,71.615 257.473,71.761 259.512 C 72.087 264.036,70.451 261.433,85.060 280.669 C 86.142 282.095,90.416 285.248,104.009 294.651 C 113.663 301.329,122.263 307.295,123.122 307.910 C 123.980 308.525,126.697 310.399,129.159 312.075 C 133.885 315.292,138.558 318.580,153.171 328.970 C 172.444 342.674,171.007 341.300,171.727 346.713 C 172.881 355.388,170.923 359.928,164.470 363.537 C 161.268 365.327,161.287 365.281,162.708 367.764 C 164.137 370.261,164.365 370.453,166.634 371.080 C 169.198 371.788,174.698 373.454,177.171 374.272 C 178.351 374.663,181.161 375.532,183.415 376.205 C 185.668 376.877,189.444 378.012,191.805 378.728 C 206.017 383.033,203.823 382.738,210.341 381.226 C 213.888 380.404,214.370 380.295,221.268 378.740 C 226.302 377.606,227.411 377.351,232.348 376.190 C 234.256 375.741,236.714 375.190,237.811 374.965 C 239.952 374.525,240.135 374.485,247.220 372.874 C 249.795 372.288,252.517 371.678,253.268 371.517 C 254.871 371.174,264.858 368.921,267.122 368.392 C 269.313 367.879,277.026 366.109,280.976 365.211 C 282.800 364.797,284.995 364.296,285.854 364.099 C 286.712 363.903,288.644 363.466,290.146 363.129 C 291.649 362.792,293.624 362.346,294.537 362.136 C 297.092 361.551,299.124 361.090,304.000 359.991 C 313.778 357.788,319.331 356.523,328.780 354.345 C 329.639 354.147,331.483 353.731,332.878 353.421 C 336.439 352.628,342.536 351.261,344.390 350.839 C 345.249 350.643,347.971 350.028,350.439 349.472 C 352.907 348.916,355.629 348.297,356.488 348.098 C 357.925 347.763,364.600 346.254,368.780 345.319 C 369.746 345.103,371.151 344.768,371.902 344.574 C 372.654 344.380,374.940 343.859,376.984 343.416 C 381.153 342.512,381.592 342.273,385.490 338.778 C 388.402 336.167,388.922 335.225,389.829 330.927 C 390.362 328.401,390.765 326.613,391.611 323.024 C 392.178 320.616,392.178 320.164,391.611 317.756 C 390.789 314.268,390.461 312.841,389.256 307.512 C 388.697 305.044,387.910 301.620,387.507 299.902 C 387.104 298.185,386.497 295.551,386.158 294.049 C 385.329 290.379,384.964 288.793,384.042 284.878 C 383.613 283.054,382.984 280.332,382.645 278.829 C 381.586 274.136,381.335 273.028,380.919 271.220 C 380.696 270.254,380.058 267.444,379.499 264.976 C 378.941 262.507,378.135 258.995,377.709 257.171 C 376.549 252.213,376.282 251.058,375.400 247.220 C 374.956 245.288,374.339 242.610,374.028 241.268 C 372.959 236.654,372.260 233.557,371.848 231.610 C 371.472 229.837,364.857 208.872,364.090 207.024 C 363.912 206.595,362.482 202.380,360.913 197.659 L 358.060 189.073 357.859 170.341 L 357.659 151.610 355.269 147.122 C 353.955 144.654,351.408 139.763,349.610 136.254 C 346.354 129.898,345.740 129.039,338.826 121.171 C 324.253 104.585,313.784 90.936,313.759 88.489 C 313.757 88.329,313.141 86.868,312.390 85.241 C 311.639 83.615,311.024 82.215,311.024 82.129 C 311.024 82.044,310.605 81.047,310.092 79.914 C 308.472 76.332,307.625 74.439,306.028 70.829 C 304.518 67.419,303.712 65.670,299.945 57.622 C 298.956 55.510,298.146 53.728,298.146 53.663 C 298.146 53.597,297.173 51.480,295.983 48.957 C 294.793 46.434,293.456 43.563,293.011 42.575 C 289.968 35.827,288.577 33.262,286.897 31.302 C 285.847 30.076,283.195 26.970,281.006 24.400 C 276.842 19.512,265.378 8.969,264.245 8.985 C 263.896 8.990,261.245 10.226,258.355 11.732 M233.848 44.847 C 235.240 46.093,235.480 48.460,234.583 52.098 C 234.372 52.956,234.014 54.712,233.789 56.000 C 233.095 59.965,232.208 64.871,231.778 67.122 C 231.552 68.302,231.200 70.146,230.995 71.220 C 230.405 74.309,228.714 83.479,228.261 86.049 C 228.033 87.337,227.769 88.741,227.672 89.171 C 227.141 91.540,225.959 98.681,225.955 99.541 C 225.952 100.330,226.306 100.726,227.610 101.395 C 228.522 101.862,230.498 102.914,232.000 103.731 C 233.502 104.549,236.488 106.153,238.634 107.297 C 244.941 110.658,248.263 112.435,250.341 113.560 C 251.415 114.140,254.137 115.597,256.390 116.797 C 258.644 117.998,261.980 119.787,263.805 120.773 C 265.629 121.759,268.205 123.117,269.528 123.790 L 271.934 125.013 275.967 124.483 L 280.000 123.953 283.066 121.586 C 284.752 120.285,286.596 118.871,287.163 118.445 C 287.731 118.020,290.917 115.554,294.244 112.966 C 303.943 105.421,304.389 105.211,306.656 107.118 C 309.318 109.358,308.203 111.811,302.625 115.992 C 301.557 116.792,297.434 119.961,293.463 123.032 C 282.783 131.295,283.389 130.945,278.509 131.670 C 271.093 132.772,270.241 132.659,265.020 129.885 C 262.527 128.561,259.346 126.874,257.951 126.136 C 255.342 124.755,251.045 122.448,247.610 120.583 C 246.537 120.000,244.078 118.683,242.146 117.657 C 236.822 114.827,232.991 112.781,230.829 111.611 C 229.756 111.030,227.006 109.558,224.718 108.339 C 217.957 104.738,217.214 103.391,218.555 97.171 C 218.763 96.205,219.369 93.044,219.903 90.146 C 221.105 83.613,221.466 81.656,222.420 76.488 C 222.836 74.234,223.460 70.810,223.806 68.878 C 224.153 66.946,224.591 64.576,224.780 63.610 C 224.970 62.644,225.406 60.273,225.750 58.341 C 226.095 56.410,226.531 54.039,226.720 53.073 C 226.909 52.107,227.280 50.176,227.545 48.780 C 228.457 43.985,231.065 42.358,233.848 44.847 M45.268 157.390 C 45.268 157.458,45.795 158.017,46.439 158.634 C 47.859 159.994,48.017 159.662,46.616 158.262 C 45.709 157.354,45.268 157.070,45.268 157.390 M48.780 160.903 C 48.780 160.970,49.307 161.529,49.951 162.146 C 51.371 163.506,51.529 163.174,50.129 161.774 C 49.221 160.867,48.780 160.582,48.780 160.903 M244.683 177.391 C 247.580 177.723,251.268 178.149,252.878 178.337 C 254.488 178.525,256.771 178.785,257.951 178.915 C 263.853 179.562,265.759 180.011,266.734 180.987 C 268.071 182.324,268.078 184.640,266.749 185.969 C 265.720 186.998,265.400 187.055,261.339 186.934 L 258.679 186.854 259.510 188.484 C 259.967 189.380,260.857 190.406,261.486 190.764 C 263.986 192.185,264.080 193.286,262.404 201.509 L 261.698 204.970 262.800 205.772 C 264.378 206.921,264.980 208.709,265.243 213.020 C 265.535 217.821,265.473 217.940,259.837 223.431 C 250.751 232.283,251.048 232.146,243.422 230.981 C 237.761 230.116,236.363 229.246,235.547 226.080 L 235.061 224.195 230.799 224.325 C 228.455 224.396,225.395 224.612,224.000 224.805 C 215.000 226.048,210.941 224.534,212.360 220.462 C 212.770 219.286,212.718 219.128,211.603 218.184 C 210.945 217.627,209.748 216.117,208.944 214.829 C 207.015 211.741,206.770 211.632,206.144 213.586 C 205.856 214.484,205.460 215.571,205.264 216.000 C 205.068 216.429,204.617 217.704,204.261 218.834 C 203.064 222.636,200.090 223.955,197.824 221.689 C 195.948 219.812,195.714 220.799,203.280 198.673 C 205.217 193.006,206.709 188.218,206.594 188.033 C 206.480 187.848,205.663 187.327,204.778 186.876 C 201.768 185.340,200.951 183.740,202.040 181.512 C 203.159 179.223,204.751 178.697,211.833 178.277 C 215.198 178.077,221.727 177.682,226.341 177.399 C 237.735 176.700,238.647 176.700,244.683 177.391 M227.484 184.832 C 227.147 184.928,224.253 185.131,221.054 185.283 L 215.236 185.561 214.772 187.512 C 214.516 188.585,214.003 190.479,213.632 191.720 C 212.914 194.120,213.324 195.110,215.024 195.090 C 215.750 195.082,230.233 185.709,230.352 185.171 C 230.443 184.761,228.533 184.535,227.484 184.832 M130.438 202.156 C 143.555 209.986,144.724 211.142,142.594 214.182 C 141.840 215.259,141.833 215.250,144.882 216.752 C 149.378 218.966,149.626 220.025,148.092 230.439 C 147.744 232.800,147.317 235.797,147.142 237.100 C 146.609 241.078,145.366 242.732,142.908 242.732 C 140.356 242.732,139.217 240.806,138.694 235.610 C 138.394 232.633,138.078 232.375,137.142 234.346 C 136.461 235.782,134.666 236.964,125.073 242.293 C 119.529 245.373,119.058 245.381,113.219 242.509 C 106.121 239.017,105.434 238.494,102.359 234.253 C 97.998 228.235,97.562 226.731,99.587 224.706 C 100.366 223.927,100.391 223.722,99.967 221.668 C 99.717 220.456,99.512 218.997,99.512 218.424 L 99.512 217.383 97.680 218.545 C 94.485 220.571,91.317 219.391,91.317 216.173 C 91.317 214.345,92.200 213.377,97.579 209.306 C 99.608 207.771,103.024 205.168,105.171 203.523 C 118.422 193.367,115.943 193.501,130.438 202.156 M113.366 206.665 C 108.013 210.724,107.801 210.948,108.397 211.902 C 108.661 212.325,108.885 213.333,108.894 214.141 L 108.911 215.610 112.244 212.116 C 116.613 207.537,118.829 204.928,118.829 204.361 C 118.829 203.134,117.012 203.900,113.366 206.665 M252.979 212.290 C 251.411 212.525,249.951 213.230,246.735 215.303 L 242.537 218.009 242.539 220.389 C 242.542 223.287,242.549 223.294,245.568 223.656 C 248.526 224.011,248.340 224.118,253.799 218.907 C 259.879 213.101,259.654 211.286,252.979 212.290 M186.049 256.216 C 188.155 258.610,187.802 259.188,178.634 268.321 C 170.018 276.905,169.107 277.561,167.132 276.598 C 164.103 275.121,164.935 273.377,172.878 264.546 C 182.469 253.883,183.450 253.263,186.049 256.216 M145.667 264.374 C 148.227 265.709,155.246 271.624,155.652 272.789 C 156.714 275.836,153.275 278.522,150.543 276.778 C 148.959 275.767,142.115 267.910,141.830 266.776 C 141.331 264.788,143.663 263.328,145.667 264.374 M178.341 290.717 C 206.115 294.202,203.259 293.994,207.556 292.850 C 213.749 291.202,214.917 293.051,210.484 297.484 C 206.170 301.798,206.372 301.770,194.341 299.688 C 193.376 299.521,191.532 299.205,190.244 298.986 C 187.869 298.583,182.483 297.609,178.927 296.941 C 177.854 296.740,175.880 296.465,174.542 296.332 L 172.108 296.089 167.172 300.727 C 156.914 310.367,156.183 310.780,153.726 308.323 C 151.076 305.672,151.794 304.561,160.802 297.372 C 171.355 288.950,169.592 289.619,178.341 290.717 " stroke="none" fill="#fbfcfb" fill-rule="evenodd"></path></g></svg>