<svg id="svg" xmlns="http://www.w3.org/2000/svg" xmlns:xlink="http://www.w3.org/1999/xlink" width="400" height="400" viewBox="0, 0, 400,400" version="1.1"><g id="svgg"><path id="path0" d="M202.308 12.500 C 200.199 14.135,199.447 17.606,198.819 28.600 C 198.593 32.560,198.317 36.610,198.206 37.600 C 198.095 38.590,197.733 43.785,197.401 49.143 L 196.798 58.887 195.699 59.703 C 188.690 64.912,180.999 76.347,178.281 85.600 C 175.765 94.170,174.843 116.286,176.722 123.000 C 179.165 131.726,182.955 136.439,191.238 141.051 C 193.087 142.081,194.652 142.962,194.715 143.010 C 194.778 143.058,193.899 144.560,192.760 146.348 L 190.690 149.600 186.793 149.600 C 166.244 149.600,136.401 162.660,123.890 177.128 C 118.104 183.819,107.858 203.534,104.000 215.400 C 103.499 216.940,102.591 219.468,101.982 221.017 C 100.941 223.665,99.078 231.494,96.990 242.000 C 91.741 268.407,92.973 325.270,99.149 341.714 C 107.830 364.824,118.688 370.871,157.600 374.265 C 168.425 375.210,207.401 375.230,217.000 374.296 C 237.765 372.277,243.211 371.479,253.126 369.004 C 275.404 363.445,293.386 347.851,300.410 328.000 C 300.916 326.570,301.457 325.220,301.612 325.000 C 302.519 323.712,304.506 315.786,306.226 306.600 C 308.989 291.844,307.782 268.987,303.818 261.000 C 298.526 250.336,282.861 247.611,270.800 255.256 L 269.400 256.144 270.598 254.772 C 271.257 254.017,273.617 251.510,275.843 249.200 C 290.904 233.567,298.786 222.653,302.237 212.652 C 307.407 197.669,308.671 179.105,305.522 164.400 C 302.699 151.213,296.925 128.854,293.959 119.619 C 291.692 112.561,291.424 99.234,293.388 91.255 C 297.862 73.092,299.565 46.521,296.563 41.726 C 295.556 40.119,287.611 40.168,281.200 41.821 C 279.990 42.133,277.002 42.825,274.560 43.359 C 269.492 44.466,262.526 47.078,256.813 50.013 C 253.081 51.930,252.812 52.006,251.148 51.622 C 250.186 51.401,248.126 51.215,246.568 51.210 L 243.736 51.200 242.368 49.301 C 241.616 48.257,240.370 46.470,239.600 45.331 C 226.722 26.269,206.974 8.883,202.308 12.500 M216.644 47.100 C 217.692 48.585,221.059 53.397,224.125 57.793 C 230.779 67.331,230.139 66.771,234.400 66.790 C 240.403 66.817,245.346 68.359,251.820 72.223 C 256.760 75.170,256.270 75.275,262.451 69.948 C 267.127 65.918,278.376 59.200,280.448 59.200 C 281.282 59.200,280.508 66.475,278.788 74.800 C 275.195 92.193,275.074 93.121,275.568 99.600 C 275.811 102.790,276.201 109.810,276.434 115.200 C 276.915 126.340,276.946 126.520,280.572 139.000 C 287.542 162.992,288.642 169.375,288.289 183.800 C 287.771 204.983,284.123 211.579,257.640 239.217 C 240.818 256.772,239.886 258.076,236.653 268.600 C 232.233 282.984,234.286 310.573,241.236 330.177 C 243.012 335.188,243.706 336.000,246.209 336.000 C 255.948 336.000,275.233 319.581,280.689 306.644 C 285.323 295.657,285.520 289.963,281.390 286.314 C 275.988 281.539,279.130 270.191,285.418 271.769 C 290.188 272.966,292.007 282.064,290.200 295.680 C 286.252 325.434,268.919 346.354,242.600 353.134 C 208.922 361.809,150.791 360.844,131.800 351.295 C 118.408 344.561,111.678 329.427,109.954 302.174 C 107.425 262.189,116.696 223.047,135.357 194.927 C 145.625 179.455,182.432 162.576,199.521 165.504 C 203.062 166.110,203.714 165.752,206.267 161.800 C 211.164 154.216,215.877 148.284,222.608 141.231 C 228.480 135.077,228.293 134.500,219.728 132.382 C 213.206 130.769,202.708 125.784,199.302 122.682 L 198.404 121.864 200.780 119.390 C 204.832 115.170,204.169 112.056,199.458 113.186 C 197.421 113.675,197.179 113.653,195.889 112.855 C 195.128 112.385,194.130 112.000,193.671 112.000 C 192.442 112.000,192.183 109.883,192.715 104.200 C 193.745 93.185,200.979 80.405,209.724 74.147 C 213.984 71.099,214.895 69.641,213.344 68.354 C 212.628 67.759,212.648 66.707,213.664 51.500 C 214.206 43.382,214.115 43.517,216.644 47.100 M228.595 99.120 C 222.412 101.257,217.631 106.456,219.931 108.538 C 220.948 109.458,221.999 109.368,224.412 108.156 C 229.362 105.670,235.009 105.848,237.955 108.584 C 243.464 113.700,245.804 107.013,240.542 101.189 C 237.966 98.337,233.230 97.517,228.595 99.120 M263.855 262.700 C 259.413 271.344,258.845 285.531,262.610 293.793 C 264.351 297.615,263.576 299.293,256.640 306.708 L 254.267 309.245 253.767 308.057 C 252.568 305.206,250.692 291.939,250.931 288.000 C 251.505 278.516,254.552 271.984,262.355 263.506 C 264.374 261.313,264.642 261.168,263.855 262.700 M206.120 265.300 C 197.207 275.086,206.239 336.119,217.440 341.790 C 221.021 343.602,230.494 342.915,232.121 340.725 L 232.919 339.650 229.461 332.481 C 220.829 314.588,215.735 293.507,216.215 277.669 C 216.501 268.226,216.616 268.541,212.000 266.162 C 208.123 264.164,207.268 264.039,206.120 265.300 M186.661 316.500 C 184.627 319.199,181.200 325.341,181.200 326.288 C 181.200 328.962,185.198 332.942,192.006 337.046 C 196.007 339.458,196.686 339.599,197.930 338.274 C 199.194 336.929,199.069 336.375,196.207 330.617 C 194.428 327.037,193.243 323.978,192.431 320.869 C 190.814 314.681,189.043 313.340,186.661 316.500 " stroke="none" fill="#fbfbfb" fill-rule="evenodd"></path><path id="path1" d="M0.000 200.000 L 0.000 400.000 200.000 400.000 L 400.000 400.000 400.000 200.000 L 400.000 0.000 200.000 0.000 L 0.000 0.000 0.000 200.000 M207.244 13.022 C 217.012 17.972,229.627 30.569,239.600 45.331 C 240.370 46.470,241.616 48.257,242.368 49.301 L 243.736 51.200 246.568 51.210 C 248.126 51.215,250.186 51.401,251.148 51.622 C 252.812 52.006,253.081 51.930,256.813 50.013 C 262.526 47.078,269.492 44.466,274.560 43.359 C 277.002 42.825,279.990 42.133,281.200 41.821 C 287.611 40.168,295.556 40.119,296.563 41.726 C 299.565 46.521,297.862 73.092,293.388 91.255 C 291.424 99.234,291.692 112.561,293.959 119.619 C 296.925 128.854,302.699 151.213,305.522 164.400 C 308.671 179.105,307.407 197.669,302.237 212.652 C 298.786 222.653,290.904 233.567,275.843 249.200 C 273.617 251.510,271.257 254.017,270.598 254.772 L 269.400 256.144 270.800 255.256 C 282.861 247.611,298.526 250.336,303.818 261.000 C 307.782 268.987,308.989 291.844,306.226 306.600 C 304.506 315.786,302.519 323.712,301.612 325.000 C 301.457 325.220,300.916 326.570,300.410 328.000 C 293.386 347.851,275.404 363.445,253.126 369.004 C 243.211 371.479,237.765 372.277,217.000 374.296 C 196.283 376.311,149.993 374.678,135.200 371.410 C 113.772 366.676,106.175 360.418,99.149 341.714 C 92.973 325.270,91.741 268.407,96.990 242.000 C 99.078 231.494,100.941 223.665,101.982 221.017 C 102.591 219.468,103.499 216.940,104.000 215.400 C 107.858 203.534,118.104 183.819,123.890 177.128 C 136.401 162.660,166.244 149.600,186.793 149.600 L 190.690 149.600 192.760 146.348 C 193.899 144.560,194.778 143.058,194.715 143.010 C 194.652 142.962,193.087 142.081,191.238 141.051 C 182.955 136.439,179.165 131.726,176.722 123.000 C 174.843 116.286,175.765 94.170,178.281 85.600 C 180.999 76.347,188.690 64.912,195.699 59.703 L 196.798 58.887 197.401 49.143 C 197.733 43.785,198.095 38.590,198.206 37.600 C 198.317 36.610,198.593 32.560,198.819 28.600 C 199.714 12.928,201.294 10.007,207.244 13.022 M213.664 51.500 C 212.648 66.707,212.628 67.759,213.344 68.354 C 214.895 69.641,213.984 71.099,209.724 74.147 C 200.979 80.405,193.745 93.185,192.715 104.200 C 192.183 109.883,192.442 112.000,193.671 112.000 C 194.130 112.000,195.128 112.385,195.889 112.855 C 197.179 113.653,197.421 113.675,199.458 113.186 C 204.169 112.056,204.832 115.170,200.780 119.390 L 198.404 121.864 199.302 122.682 C 202.708 125.784,213.206 130.769,219.728 132.382 C 228.293 134.500,228.480 135.077,222.608 141.231 C 215.877 148.284,211.164 154.216,206.267 161.800 C 203.714 165.752,203.062 166.110,199.521 165.504 C 182.432 162.576,145.625 179.455,135.357 194.927 C 116.696 223.047,107.425 262.189,109.954 302.174 C 111.678 329.427,118.408 344.561,131.800 351.295 C 150.791 360.844,208.922 361.809,242.600 353.134 C 268.919 346.354,286.252 325.434,290.200 295.680 C 292.007 282.064,290.188 272.966,285.418 271.769 C 279.130 270.191,275.988 281.539,281.390 286.314 C 285.520 289.963,285.323 295.657,280.689 306.644 C 275.233 319.581,255.948 336.000,246.209 336.000 C 243.706 336.000,243.012 335.188,241.236 330.177 C 234.286 310.573,232.233 282.984,236.653 268.600 C 239.886 258.076,240.818 256.772,257.640 239.217 C 284.123 211.579,287.771 204.983,288.289 183.800 C 288.642 169.375,287.542 162.992,280.572 139.000 C 276.946 126.520,276.915 126.340,276.434 115.200 C 276.201 109.810,275.811 102.790,275.568 99.600 C 275.074 93.121,275.195 92.193,278.788 74.800 C 280.508 66.475,281.282 59.200,280.448 59.200 C 278.376 59.200,267.127 65.918,262.451 69.948 C 256.270 75.275,256.760 75.170,251.820 72.223 C 245.346 68.359,240.403 66.817,234.400 66.790 C 230.139 66.771,230.779 67.331,224.125 57.793 C 215.457 45.365,214.758 44.400,214.438 44.400 C 214.273 44.400,213.924 47.595,213.664 51.500 M237.830 99.041 C 241.874 100.960,244.899 107.840,242.634 109.968 C 241.388 111.139,240.387 110.843,237.955 108.584 C 235.009 105.848,229.362 105.670,224.412 108.156 C 217.465 111.646,217.804 104.962,224.781 100.873 C 228.926 98.444,234.826 97.616,237.830 99.041 M262.355 263.506 C 254.552 271.984,251.505 278.516,250.931 288.000 C 250.692 291.939,252.568 305.206,253.767 308.057 L 254.267 309.245 256.640 306.708 C 263.576 299.293,264.351 297.615,262.610 293.793 C 258.845 285.531,259.413 271.344,263.855 262.700 C 264.642 261.168,264.374 261.313,262.355 263.506 M212.000 266.162 C 216.616 268.541,216.501 268.226,216.215 277.669 C 215.735 293.507,220.829 314.588,229.461 332.481 L 232.919 339.650 232.121 340.725 C 230.494 342.915,221.021 343.602,217.440 341.790 C 208.234 337.128,199.391 292.473,203.620 272.000 C 205.287 263.933,206.302 263.226,212.000 266.162 M190.774 315.769 C 191.034 316.082,191.780 318.377,192.431 320.869 C 193.243 323.978,194.428 327.037,196.207 330.617 C 201.273 340.810,197.857 341.810,186.487 333.464 C 184.212 331.794,181.200 327.705,181.200 326.288 C 181.200 325.341,184.627 319.199,186.661 316.500 C 187.741 315.067,189.877 314.688,190.774 315.769 " stroke="none" fill="#fccc64" fill-rule="evenodd"></path></g></svg>